<svg xmlns="http://www.w3.org/2000/svg" xmlns:xlink="http://www.w3.org/1999/xlink" width="500" zoomAndPan="magnify" viewBox="0 0 375 374.999991" height="500" preserveAspectRatio="xMidYMid meet" version="1.0"><defs><clipPath id="ffd9e089a6"><path d="M 11 130 L 364.496094 130 L 364.496094 238 L 11 238 Z M 11 130 " clip-rule="nonzero"/></clipPath></defs><rect x="-37.5" width="450" fill="#ffffff" y="-37.499999" height="449.999989" fill-opacity="1"/><rect x="-37.5" width="450" fill="#ffffff" y="-37.499999" height="449.999989" fill-opacity="1"/><path fill="#151515" d="M 30.242188 154.894531 L 31.679688 154.550781 C 31.878906 154.550781 31.976562 154.746094 31.976562 155.144531 C 31.976562 155.507812 31.398438 156.117188 30.242188 156.972656 C 29.117188 157.832031 27.746094 158.257812 26.128906 158.257812 C 24.542969 158.257812 23.285156 157.796875 22.359375 156.875 C 21.46875 155.949219 21.019531 154.746094 21.019531 153.265625 C 21.019531 150.132812 23.070312 147.03125 27.167969 143.964844 C 31.265625 140.867188 36.308594 138.394531 42.289062 136.546875 C 48.269531 134.667969 54.003906 133.726562 59.492188 133.726562 C 67.523438 133.726562 73.488281 135.03125 77.386719 137.636719 C 81.320312 140.242188 83.289062 143.734375 83.289062 148.121094 C 83.289062 153.726562 79.386719 159.148438 71.585938 164.390625 C 67.488281 167.160156 63.0625 169.371094 58.300781 171.019531 C 63.523438 171.578125 67.6875 173.261719 70.792969 176.0625 C 73.140625 178.171875 74.3125 180.859375 74.3125 184.125 C 74.3125 187.390625 72.746094 190.71875 69.605469 194.117188 C 66.496094 197.476562 62.351562 200.28125 57.160156 202.523438 C 51.972656 204.730469 46.667969 205.835938 41.246094 205.835938 C 35 205.835938 30.40625 204.46875 27.464844 201.730469 C 26.144531 200.480469 25.484375 199.375 25.484375 198.417969 C 25.484375 197.429688 25.730469 196.390625 26.226562 195.300781 C 23.8125 199.65625 22.046875 202.933594 20.921875 205.144531 C 20.425781 206.132812 19.417969 206.628906 17.898438 206.628906 C 16.410156 206.628906 15.253906 206.230469 14.429688 205.441406 C 13.601562 204.648438 13.1875 203.757812 13.1875 202.769531 C 13.1875 201.78125 13.335938 200.90625 13.632812 200.148438 C 15.121094 196.257812 20.359375 187.160156 29.351562 172.847656 C 38.371094 158.507812 43.890625 150.199219 45.90625 147.921875 C 46.964844 146.636719 49.363281 145.992188 53.097656 145.992188 C 54.582031 145.992188 55.328125 146.324219 55.328125 146.984375 C 55.328125 147.476562 53.128906 151.1875 48.734375 158.109375 C 44.339844 165.035156 42.042969 168.660156 41.84375 168.992188 C 46.4375 167.671875 51.128906 165.875 55.921875 163.601562 C 60.746094 161.292969 64.945312 158.6875 68.515625 155.785156 C 72.117188 152.882812 73.917969 150.261719 73.917969 147.921875 C 73.917969 144.066406 69.71875 142.136719 61.324219 142.136719 C 52.535156 142.136719 44.074219 144.460938 35.945312 149.109375 C 33.925781 150.261719 32.390625 151.320312 31.332031 152.273438 C 30.273438 153.230469 29.746094 153.90625 29.746094 154.300781 C 29.746094 154.699219 29.910156 154.894531 30.242188 154.894531 Z M 39.164062 178.535156 C 38.570312 178.535156 37.910156 177.84375 37.183594 176.460938 C 34.042969 181.472656 30.753906 187.042969 27.316406 193.175781 C 28.871094 191.03125 31.132812 189.960938 34.109375 189.960938 C 36.09375 189.960938 37.082031 190.207031 37.082031 190.703125 C 37.082031 190.898438 36.867188 191.082031 36.4375 191.246094 C 35.117188 191.742188 34.457031 192.484375 34.457031 193.472656 C 34.457031 195.847656 36.984375 197.035156 42.042969 197.035156 C 48.882812 197.035156 55.078125 194.660156 60.632812 189.910156 C 63.605469 187.40625 65.09375 185.214844 65.09375 183.332031 C 65.09375 182.179688 63.886719 180.910156 61.472656 179.527344 C 58.664062 177.976562 54.386719 177.199219 48.632812 177.199219 C 44.636719 177.199219 42.074219 177.433594 40.949219 177.894531 C 39.828125 178.320312 39.230469 178.535156 39.164062 178.535156 Z M 99.199219 199.359375 C 93.054688 204.832031 85.714844 207.566406 77.191406 207.566406 C 72.035156 207.566406 68.347656 206.480469 66.132812 204.304688 C 64.878906 203.117188 64.25 201.023438 64.25 198.023438 C 64.25 193.40625 67.769531 190.421875 74.808594 189.070312 C 77.023438 188.640625 79.683594 188.425781 82.792969 188.425781 C 85.898438 188.425781 90.144531 189.003906 95.53125 190.160156 C 98.40625 186.960938 101.828125 182.261719 105.792969 176.0625 C 109.792969 169.832031 112.949219 165.035156 115.261719 161.671875 C 117.578125 158.308594 120.203125 154.878906 123.144531 151.382812 C 126.085938 147.855469 129.160156 144.675781 132.367188 141.839844 C 138.878906 136.035156 145.320312 133.136719 151.699219 133.136719 C 154.542969 133.136719 156.59375 133.859375 157.847656 135.3125 C 159.105469 136.730469 159.730469 138.425781 159.730469 140.40625 C 159.730469 142.351562 158.824219 144.625 157.003906 147.230469 C 155.21875 149.835938 153.136719 152.144531 150.757812 154.152344 C 148.414062 156.164062 146.082031 157.878906 143.769531 159.296875 C 141.488281 160.683594 139.6875 161.375 138.363281 161.375 C 137.042969 161.375 135.902344 160.8125 134.945312 159.691406 C 133.984375 158.570312 133.507812 157.5 133.507812 156.480469 C 133.507812 155.421875 133.640625 154.699219 133.902344 154.300781 C 134.199219 153.875 134.5 153.660156 134.796875 153.660156 C 135.09375 153.660156 135.273438 153.839844 135.339844 154.203125 C 136.398438 153.875 138.085938 152.851562 140.398438 151.136719 C 142.746094 149.390625 144.875 147.578125 146.792969 145.695312 C 148.710938 143.816406 149.667969 142.648438 149.667969 142.1875 C 149.667969 141.691406 149.371094 141.445312 148.777344 141.445312 C 148.214844 141.445312 147.4375 141.640625 146.445312 142.039062 C 145.453125 142.433594 144.132812 143.257812 142.480469 144.511719 C 140.828125 145.730469 139.042969 147.3125 137.125 149.257812 C 132.5 153.875 127.34375 160.417969 121.660156 168.890625 C 120.335938 170.804688 118.46875 173.589844 116.054688 177.25 C 111.132812 184.667969 107.613281 189.746094 105.496094 192.484375 C 122.453125 196.933594 134.5625 199.160156 141.835938 199.160156 C 145.207031 199.160156 147.570312 198.730469 148.925781 197.875 C 149.421875 197.578125 149.75 197.429688 149.917969 197.429688 C 150.082031 197.429688 150.164062 197.5625 150.164062 197.824219 C 150.164062 198.089844 150.015625 198.484375 149.71875 199.011719 C 149.421875 199.539062 148.675781 200.660156 147.488281 202.375 C 146.332031 204.089844 145.472656 205.109375 144.910156 205.441406 C 143.289062 206.398438 140.53125 206.875 136.628906 206.875 C 132.761719 206.875 129.0625 206.59375 125.523438 206.035156 C 122.023438 205.472656 119.195312 204.929688 117.046875 204.402344 C 114.898438 203.839844 111.710938 202.953125 107.480469 201.730469 C 103.28125 200.511719 100.523438 199.71875 99.199219 199.359375 Z M 81.105469 196.339844 C 76.777344 196.339844 74.613281 196.851562 74.613281 197.875 C 74.613281 198.269531 74.976562 198.617188 75.703125 198.914062 C 76.460938 199.210938 77.355469 199.359375 78.378906 199.359375 C 81.585938 199.359375 84.675781 198.515625 87.648438 196.835938 C 85.105469 196.503906 82.921875 196.339844 81.105469 196.339844 Z M 218.132812 139.316406 C 219.882812 139.316406 221.566406 140.042969 223.1875 141.492188 C 224.839844 142.945312 225.667969 144.558594 225.667969 146.339844 C 225.667969 148.121094 225.21875 150.445312 224.328125 153.3125 C 223.433594 156.148438 222.179688 159.183594 220.558594 162.414062 C 218.972656 165.613281 217.023438 168.941406 214.710938 172.402344 C 212.429688 175.832031 209.933594 179.179688 207.222656 182.445312 C 204.546875 185.675781 201.589844 188.757812 198.351562 191.691406 C 195.144531 194.59375 191.890625 197.132812 188.585938 199.308594 C 181.378906 204.054688 174.339844 206.429688 167.464844 206.429688 C 165.085938 206.429688 162.96875 205.804688 161.121094 204.550781 C 159.269531 203.296875 157.832031 202.0625 156.808594 200.839844 C 154.460938 198.039062 153.289062 194.164062 153.289062 189.21875 C 153.289062 184.242188 154.921875 178.40625 158.195312 171.710938 C 161.5 165.019531 165.996094 158.703125 171.679688 152.769531 C 177.398438 146.800781 183.792969 141.921875 190.863281 138.128906 C 197.9375 134.304688 204.664062 132.394531 211.042969 132.394531 C 212.296875 132.394531 213.488281 132.671875 214.609375 133.234375 C 215.734375 133.792969 216.296875 134.453125 216.296875 135.210938 C 216.296875 135.9375 216.113281 136.546875 215.75 137.042969 C 215.386719 137.503906 215.039062 138.015625 214.710938 138.574219 C 214.378906 139.101562 214.097656 139.480469 213.867188 139.710938 C 214.957031 139.449219 216.378906 139.316406 218.132812 139.316406 Z M 199.640625 162.167969 C 199.640625 162.824219 199.410156 163.15625 198.945312 163.15625 C 198.484375 163.15625 197.523438 162.363281 196.070312 160.78125 C 194.617188 159.164062 193.890625 157.8125 193.890625 156.726562 C 193.890625 154.1875 195.589844 151.300781 198.996094 148.070312 C 202.433594 144.839844 206.25 142.382812 210.445312 140.703125 C 205.820312 140.964844 200.449219 142.925781 194.335938 146.585938 C 188.222656 150.246094 182.867188 154.664062 178.273438 159.839844 C 173.679688 164.984375 169.960938 170.359375 167.117188 175.964844 C 164.308594 181.570312 162.90625 186.121094 162.90625 189.613281 C 162.90625 191.757812 163.382812 193.605469 164.34375 195.152344 C 165.300781 196.671875 166.921875 197.429688 169.199219 197.429688 C 171.515625 197.429688 174.289062 196.636719 177.527344 195.054688 C 180.769531 193.472656 183.925781 191.394531 186.996094 188.824219 C 197.574219 179.886719 205.835938 169.964844 211.785156 159.050781 C 214.199219 154.566406 215.40625 151.46875 215.40625 149.753906 C 215.40625 149.058594 215.171875 148.714844 214.710938 148.714844 C 213.355469 148.714844 211.4375 149.585938 208.960938 151.335938 C 206.480469 153.050781 204.28125 154.945312 202.367188 157.023438 C 200.449219 159.101562 199.492188 160.601562 199.492188 161.523438 Z M 294.128906 144.066406 C 294.128906 145.746094 293.054688 147.773438 290.90625 150.148438 C 288.757812 152.523438 286.097656 154.78125 282.925781 156.921875 C 279.785156 159.066406 276.664062 160.765625 273.554688 162.019531 C 274.25 161.785156 274.960938 161.671875 275.6875 161.671875 C 278.132812 161.671875 279.753906 162.117188 280.546875 163.007812 C 280.742188 163.203125 280.84375 163.4375 280.84375 163.699219 C 280.84375 163.964844 280.398438 164.605469 279.503906 165.628906 C 270.21875 176.34375 261.691406 186.976562 253.925781 197.527344 C 257.097656 195.054688 259.90625 192.699219 262.351562 190.457031 C 263.707031 189.234375 265.359375 188.625 267.308594 188.625 C 268.730469 188.625 269.605469 188.808594 269.9375 189.167969 C 270.265625 189.53125 270.433594 189.84375 270.433594 190.109375 C 270.433594 190.339844 270.21875 190.621094 269.789062 190.949219 C 264.269531 195.765625 255.261719 202.785156 242.769531 212.019531 C 240.621094 214.425781 235.203125 220.164062 226.507812 229.230469 C 224.957031 230.8125 223.238281 231.601562 221.351562 231.601562 C 217.683594 231.601562 215.851562 230.582031 215.851562 228.539062 C 215.851562 227.648438 216.5625 226.230469 217.980469 224.285156 C 220.03125 221.285156 225.039062 216.75 233.003906 210.683594 C 234.753906 208.738281 237.78125 205.441406 242.074219 200.792969 C 250.207031 191.957031 255.113281 186.285156 256.800781 183.777344 C 252.304688 188.03125 248.898438 191.03125 246.585938 192.78125 C 244.273438 194.527344 242.125 196.042969 240.140625 197.328125 C 238.191406 198.617188 236.390625 199.65625 234.738281 200.445312 C 226.742188 204.269531 221.039062 204.285156 217.636719 200.496094 C 215.917969 198.617188 215.058594 195.863281 215.058594 192.234375 C 215.058594 188.574219 216.066406 184.554688 218.082031 180.167969 C 220.097656 175.78125 222.792969 171.464844 226.164062 167.210938 C 229.535156 162.925781 233.53125 158.753906 238.160156 154.699219 C 242.785156 150.644531 247.59375 147.082031 252.585938 144.015625 C 257.578125 140.949219 262.832031 138.492188 268.351562 136.644531 C 273.871094 134.765625 279.074219 133.828125 283.964844 133.828125 C 285.652344 133.828125 287.238281 134.109375 288.726562 134.667969 C 290.214844 135.230469 291.269531 135.820312 291.898438 136.449219 C 293.386719 137.933594 294.128906 140.472656 294.128906 144.066406 Z M 265.476562 154.402344 L 265.226562 155.390625 C 265.226562 155.949219 265.605469 156.230469 266.367188 156.230469 C 268.382812 156.230469 271.144531 155.257812 274.644531 153.3125 C 278.148438 151.367188 280.976562 149.375 283.125 147.328125 C 285.273438 145.285156 286.347656 143.585938 286.347656 142.234375 C 286.347656 141.082031 285.320312 140.503906 283.273438 140.503906 C 279.636719 140.503906 275.539062 141.394531 270.976562 143.175781 C 266.449219 144.957031 262.019531 147.261719 257.691406 150.097656 C 253.363281 152.933594 249.097656 156.199219 244.902344 159.890625 C 240.703125 163.550781 237.035156 167.226562 233.894531 170.921875 C 230.789062 174.578125 228.277344 178.171875 226.359375 181.703125 C 224.445312 185.230469 223.484375 188.246094 223.484375 190.753906 C 223.484375 191.742188 223.765625 192.613281 224.328125 193.375 C 224.921875 194.132812 225.78125 194.511719 226.90625 194.511719 C 230.375 194.511719 235.960938 191.855469 243.660156 186.546875 C 251.394531 181.238281 260.269531 174.003906 270.285156 164.835938 C 270.417969 164.703125 270.648438 164.457031 270.976562 164.09375 C 271.703125 163.203125 272.449219 162.5625 273.207031 162.167969 C 270.5 163.253906 268.285156 163.796875 266.566406 163.796875 C 264.847656 163.796875 263.425781 163.417969 262.300781 162.660156 C 261.179688 161.902344 260.617188 160.878906 260.617188 159.59375 C 260.617188 158.277344 261.195312 157.039062 262.351562 155.886719 C 263.507812 154.730469 264.316406 154.152344 264.78125 154.152344 C 265.242188 154.152344 265.476562 154.238281 265.476562 154.402344 Z M 357.289062 136.84375 L 359.171875 136.746094 C 359.734375 136.746094 360.363281 136.992188 361.054688 137.488281 C 361.785156 137.980469 362.144531 138.410156 362.144531 138.773438 C 361.980469 139.5 358.082031 146.125 350.445312 158.65625 C 326.617188 197.726562 313.496094 219.765625 311.085938 224.777344 C 312.304688 223.492188 313.644531 222.222656 315.097656 220.96875 C 316.585938 219.75 317.414062 219.140625 317.578125 219.140625 C 317.777344 219.140625 317.976562 219.238281 318.171875 219.4375 C 318.371094 219.667969 318.472656 219.882812 318.472656 220.078125 C 318.472656 220.3125 318.320312 220.589844 318.023438 220.921875 C 317.726562 221.25 316.683594 222.550781 314.902344 224.828125 C 313.148438 227.136719 311.84375 228.769531 310.984375 229.722656 C 310.125 230.714844 309.347656 231.75 308.652344 232.839844 C 307.996094 233.960938 307.417969 234.753906 306.917969 235.214844 C 306.457031 235.675781 305.878906 235.90625 305.183594 235.90625 C 303.167969 235.90625 301.46875 235.03125 300.078125 233.285156 C 298.722656 231.570312 298.046875 230.121094 298.046875 228.933594 C 298.046875 226.625 302.953125 217.625 312.769531 201.929688 C 322.617188 186.234375 331.292969 173.0625 338.796875 162.414062 C 321.445312 182.855469 307.628906 196.273438 297.351562 202.671875 C 293.78125 204.914062 290.875 206.035156 288.628906 206.035156 C 287.535156 206.035156 286.445312 205.722656 285.355469 205.09375 C 284.296875 204.46875 283.519531 203.675781 283.023438 202.71875 C 282.5625 201.765625 282.332031 200.066406 282.332031 197.625 C 282.332031 195.152344 283.386719 191.625 285.503906 187.042969 C 287.617188 182.425781 290.34375 177.496094 293.683594 172.253906 C 299.597656 162.890625 305.054688 154.878906 310.042969 148.21875 C 305.613281 152.207031 301.992188 154.203125 299.1875 154.203125 C 297.898438 154.203125 297.039062 154.023438 296.605469 153.660156 C 296.210938 153.265625 295.648438 152.671875 294.921875 151.878906 C 294.226562 151.054688 293.882812 150.164062 293.882812 149.207031 C 293.882812 148.21875 294.046875 147.445312 294.375 146.882812 C 294.742188 146.324219 295.070312 145.894531 295.371094 145.597656 C 296.492188 144.476562 297.21875 143.816406 297.550781 143.621094 C 297.878906 143.421875 298.277344 143.324219 298.738281 143.324219 C 299.234375 143.324219 299.484375 143.40625 299.484375 143.570312 C 299.484375 143.703125 299.300781 143.917969 298.9375 144.214844 C 298.609375 144.511719 298.441406 144.742188 298.441406 144.90625 C 298.441406 145.070312 298.625 145.152344 298.988281 145.152344 C 299.351562 145.152344 299.816406 145.070312 300.375 144.90625 C 300.9375 144.707031 301.664062 144.378906 302.554688 143.917969 C 303.480469 143.421875 304.308594 142.976562 305.035156 142.582031 C 305.796875 142.152344 306.917969 141.507812 308.40625 140.652344 C 309.894531 139.761719 311.019531 139.101562 311.777344 138.675781 C 312.570312 138.246094 313.710938 137.488281 315.199219 136.398438 C 316.71875 135.277344 317.84375 134.519531 318.570312 134.125 C 319.792969 133.398438 320.785156 133.183594 321.546875 133.480469 C 322.339844 133.777344 322.949219 133.976562 323.378906 134.074219 C 323.84375 134.171875 324.238281 134.320312 324.570312 134.519531 C 324.929688 134.683594 325.261719 134.882812 325.558594 135.113281 C 326.582031 135.839844 327.097656 136.695312 327.097656 137.683594 C 327.097656 138.640625 326.617188 139.761719 325.660156 141.046875 C 324.734375 142.332031 322.632812 145.382812 319.363281 150.199219 C 316.089844 154.976562 312.386719 160.484375 308.257812 166.714844 C 304.160156 172.914062 300.542969 178.734375 297.402344 184.175781 C 294.292969 189.613281 292.742188 193.042969 292.742188 194.460938 C 292.742188 194.957031 292.871094 195.203125 293.140625 195.203125 C 293.402344 195.203125 294.375 194.558594 296.0625 193.273438 C 304.917969 186.449219 316.207031 175.75 329.921875 161.175781 C 341.191406 149.207031 347.835938 141.804688 349.851562 138.972656 C 350.476562 138.113281 351.089844 137.535156 351.6875 137.238281 C 352.3125 136.941406 353.253906 136.792969 354.511719 136.792969 Z M 357.289062 136.84375 " fill-opacity="1" fill-rule="nonzero"/><g clip-path="url(#ffd9e089a6)"><path fill="#151515" d="M 30.242188 154.894531 L 30.242188 156.8125 L 30.472656 156.8125 L 30.691406 156.757812 Z M 31.679688 154.550781 L 31.679688 152.632812 L 31.453125 152.632812 L 31.230469 152.6875 Z M 30.242188 156.972656 L 29.097656 155.433594 L 29.074219 155.449219 Z M 22.359375 156.875 L 20.976562 158.203125 L 21 158.230469 Z M 27.167969 143.964844 L 28.320312 145.5 L 28.328125 145.492188 Z M 42.289062 136.546875 L 42.855469 138.378906 L 42.867188 138.375 Z M 77.386719 137.636719 L 76.320312 139.226562 L 76.324219 139.230469 Z M 71.585938 164.390625 L 70.515625 162.800781 L 70.511719 162.804688 Z M 58.300781 171.019531 L 57.671875 169.207031 L 58.097656 172.925781 Z M 70.792969 176.0625 L 69.507812 177.484375 L 69.507812 177.488281 Z M 69.605469 194.117188 L 68.191406 192.816406 Z M 57.160156 202.523438 L 57.914062 204.285156 L 57.925781 204.28125 Z M 27.464844 201.730469 L 26.144531 203.121094 L 26.15625 203.132812 Z M 26.226562 195.300781 L 27.976562 196.09375 L 24.546875 194.375 Z M 20.921875 205.144531 L 19.210938 204.277344 L 19.203125 204.285156 Z M 14.429688 205.441406 L 13.097656 206.824219 Z M 13.632812 200.148438 L 15.421875 200.847656 L 15.429688 200.832031 Z M 29.351562 172.847656 L 27.722656 171.832031 Z M 45.90625 147.921875 L 47.347656 149.191406 L 47.394531 149.136719 Z M 48.734375 158.109375 L 47.109375 157.085938 Z M 41.84375 168.992188 L 40.195312 168.003906 L 37.6875 172.179688 L 42.375 170.832031 Z M 55.921875 163.601562 L 56.746094 165.332031 L 56.753906 165.328125 Z M 68.515625 155.785156 L 67.308594 154.296875 L 67.300781 154.300781 Z M 35.945312 149.109375 L 34.988281 147.445312 L 34.988281 147.449219 Z M 37.183594 176.460938 L 38.882812 175.570312 L 37.328125 172.609375 L 35.554688 175.445312 Z M 27.316406 193.175781 L 25.640625 192.242188 L 28.875 194.296875 Z M 36.4375 191.246094 L 37.113281 193.042969 L 37.128906 193.035156 Z M 60.632812 189.910156 L 59.390625 188.449219 L 59.382812 188.457031 Z M 61.472656 179.527344 L 62.433594 177.863281 L 62.402344 177.847656 Z M 40.949219 177.894531 L 41.636719 179.683594 L 41.660156 179.675781 L 41.683594 179.664062 Z M 30.691406 156.757812 L 32.128906 156.414062 L 31.230469 152.6875 L 29.792969 153.035156 Z M 31.679688 156.464844 C 31.394531 156.464844 31.058594 156.390625 30.746094 156.179688 C 30.445312 155.980469 30.273438 155.734375 30.183594 155.554688 C 30.035156 155.253906 30.054688 155.042969 30.054688 155.144531 L 33.898438 155.144531 C 33.898438 154.847656 33.871094 154.339844 33.621094 153.839844 C 33.480469 153.5625 33.25 153.242188 32.875 152.992188 C 32.488281 152.734375 32.066406 152.632812 31.679688 152.632812 Z M 30.054688 155.144531 C 30.054688 154.75 30.203125 154.507812 30.21875 154.484375 C 30.242188 154.441406 30.238281 154.460938 30.148438 154.554688 C 29.972656 154.742188 29.640625 155.03125 29.097656 155.433594 L 31.386719 158.511719 C 32.003906 158.054688 32.539062 157.613281 32.9375 157.191406 C 33.140625 156.976562 33.351562 156.726562 33.519531 156.4375 C 33.679688 156.171875 33.898438 155.71875 33.898438 155.144531 Z M 29.074219 155.449219 C 28.335938 156.015625 27.390625 156.34375 26.128906 156.34375 L 26.128906 160.175781 C 28.105469 160.175781 29.902344 159.644531 31.410156 158.496094 Z M 26.128906 156.34375 C 24.933594 156.34375 24.210938 156.007812 23.71875 155.519531 L 21 158.230469 C 22.363281 159.585938 24.148438 160.175781 26.128906 160.175781 Z M 23.742188 155.542969 C 23.25 155.035156 22.941406 154.335938 22.941406 153.265625 L 19.101562 153.265625 C 19.101562 155.160156 19.683594 156.867188 20.976562 158.203125 Z M 22.941406 153.265625 C 22.941406 151.035156 24.402344 148.433594 28.320312 145.5 L 26.015625 142.433594 C 21.738281 145.632812 19.101562 149.230469 19.101562 153.265625 Z M 28.328125 145.492188 C 32.214844 142.554688 37.042969 140.171875 42.855469 138.378906 L 41.722656 134.71875 C 35.570312 136.617188 30.320312 139.179688 26.007812 142.4375 Z M 42.867188 138.375 C 48.6875 136.546875 54.226562 135.644531 59.492188 135.644531 L 59.492188 131.8125 C 53.785156 131.8125 47.855469 132.789062 41.710938 134.71875 Z M 59.492188 135.644531 C 67.382812 135.644531 72.890625 136.9375 76.320312 139.226562 L 78.457031 136.042969 C 74.085938 133.125 67.664062 131.8125 59.492188 131.8125 Z M 76.324219 139.230469 C 79.769531 141.511719 81.367188 144.433594 81.367188 148.121094 L 85.207031 148.121094 C 85.207031 143.039062 82.871094 138.96875 78.449219 136.039062 Z M 81.367188 148.121094 C 81.367188 152.75 78.144531 157.675781 70.515625 162.800781 L 72.660156 165.980469 C 80.632812 160.625 85.207031 154.699219 85.207031 148.121094 Z M 70.511719 162.804688 C 66.554688 165.480469 62.277344 167.613281 57.671875 169.207031 L 58.929688 172.828125 C 63.847656 171.125 68.425781 168.84375 72.664062 165.976562 Z M 58.097656 172.925781 C 63.019531 173.453125 66.769531 175.015625 69.507812 177.484375 L 72.082031 174.640625 C 68.605469 171.507812 64.027344 169.707031 58.507812 169.113281 Z M 69.507812 177.488281 C 71.433594 179.21875 72.394531 181.382812 72.394531 184.125 L 76.234375 184.125 C 76.234375 180.339844 74.847656 177.128906 72.082031 174.640625 Z M 72.394531 184.125 C 72.394531 186.738281 71.140625 189.628906 68.191406 192.816406 L 71.015625 195.414062 C 74.347656 191.8125 76.234375 188.039062 76.234375 184.125 Z M 68.191406 192.816406 C 65.304688 195.941406 61.398438 198.605469 56.398438 200.765625 L 57.925781 204.28125 C 63.304688 201.957031 67.691406 199.015625 71.015625 195.414062 Z M 56.40625 200.761719 C 51.445312 202.871094 46.398438 203.921875 41.246094 203.921875 L 41.246094 207.753906 C 46.9375 207.753906 52.5 206.589844 57.914062 204.285156 Z M 41.246094 203.921875 C 35.226562 203.921875 31.210938 202.59375 28.777344 200.332031 L 26.15625 203.132812 C 29.605469 206.34375 34.773438 207.753906 41.246094 207.753906 Z M 28.789062 200.34375 C 27.539062 199.160156 27.402344 198.539062 27.402344 198.417969 L 23.5625 198.417969 C 23.5625 200.210938 24.75 201.796875 26.144531 203.121094 Z M 27.402344 198.417969 C 27.402344 197.753906 27.570312 196.984375 27.976562 196.09375 L 24.476562 194.507812 C 23.890625 195.796875 23.5625 197.105469 23.5625 198.417969 Z M 24.546875 194.375 C 22.128906 198.730469 20.347656 202.035156 19.210938 204.277344 L 22.636719 206.011719 C 23.742188 203.832031 25.496094 200.578125 27.90625 196.230469 Z M 19.203125 204.285156 C 19.152344 204.386719 19.003906 204.710938 17.898438 204.710938 L 17.898438 208.542969 C 19.832031 208.542969 21.699219 207.878906 22.640625 206 Z M 17.898438 204.710938 C 16.753906 204.710938 16.128906 204.414062 15.757812 204.058594 L 13.097656 206.824219 C 14.378906 208.050781 16.070312 208.542969 17.898438 208.542969 Z M 15.757812 204.058594 C 15.246094 203.566406 15.109375 203.15625 15.109375 202.769531 L 11.269531 202.769531 C 11.269531 204.363281 11.957031 205.730469 13.097656 206.824219 Z M 15.109375 202.769531 C 15.109375 201.96875 15.230469 201.339844 15.421875 200.847656 L 11.847656 199.449219 C 11.445312 200.472656 11.269531 201.59375 11.269531 202.769531 Z M 15.429688 200.832031 C 16.835938 197.15625 21.949219 188.238281 30.976562 173.867188 L 27.722656 171.832031 C 18.773438 186.078125 13.410156 195.359375 11.839844 199.464844 Z M 30.976562 173.867188 C 35.484375 166.703125 39.109375 161.054688 41.859375 156.917969 C 44.632812 152.738281 46.445312 150.210938 47.347656 149.191406 L 44.46875 146.652344 C 43.355469 147.910156 41.398438 150.671875 38.65625 154.800781 C 35.882812 158.976562 32.238281 164.652344 27.722656 171.832031 Z M 47.394531 149.136719 C 47.570312 148.921875 48.007812 148.59375 48.996094 148.328125 C 49.972656 148.066406 51.320312 147.910156 53.097656 147.910156 L 53.097656 144.078125 C 51.136719 144.078125 49.421875 144.246094 48 144.625 C 46.59375 145.003906 45.304688 145.636719 44.421875 146.707031 Z M 53.097656 147.910156 C 53.402344 147.910156 53.628906 147.925781 53.789062 147.949219 C 53.957031 147.976562 54.011719 148 53.988281 147.992188 C 53.964844 147.980469 53.808594 147.90625 53.652344 147.699219 C 53.476562 147.46875 53.40625 147.203125 53.40625 146.984375 L 57.25 146.984375 C 57.25 146.433594 57.082031 145.878906 56.722656 145.398438 C 56.382812 144.945312 55.945312 144.664062 55.550781 144.488281 C 54.804688 144.160156 53.921875 144.078125 53.097656 144.078125 Z M 53.40625 146.984375 C 53.40625 146.832031 53.425781 146.722656 53.4375 146.667969 C 53.449219 146.609375 53.460938 146.570312 53.464844 146.554688 C 53.472656 146.523438 53.476562 146.527344 53.453125 146.574219 C 53.414062 146.667969 53.339844 146.828125 53.210938 147.070312 C 52.960938 147.550781 52.570312 148.242188 52.027344 149.160156 C 50.941406 150.988281 49.304688 153.628906 47.109375 157.085938 L 50.355469 159.136719 C 52.558594 155.667969 54.21875 152.992188 55.332031 151.109375 C 55.886719 150.171875 56.320312 149.414062 56.617188 148.84375 C 56.765625 148.558594 56.894531 148.296875 56.992188 148.0625 C 57.042969 147.949219 57.09375 147.816406 57.136719 147.671875 C 57.171875 147.566406 57.25 147.304688 57.25 146.984375 Z M 47.109375 157.085938 C 42.730469 163.988281 40.410156 167.648438 40.195312 168.003906 L 43.488281 169.976562 C 43.671875 169.671875 45.945312 166.082031 50.355469 159.136719 Z M 42.375 170.832031 C 47.078125 169.480469 51.871094 167.644531 56.746094 165.332031 L 55.097656 161.871094 C 50.390625 164.105469 45.792969 165.863281 41.3125 167.148438 Z M 56.753906 165.328125 C 61.691406 162.964844 66.023438 160.28125 69.726562 157.273438 L 67.300781 154.300781 C 63.867188 157.09375 59.800781 159.621094 55.089844 161.871094 Z M 69.71875 157.277344 C 73.378906 154.332031 75.839844 151.210938 75.839844 147.921875 L 71.996094 147.921875 C 71.996094 149.316406 70.855469 151.4375 67.308594 154.296875 Z M 75.839844 147.921875 C 75.839844 146.589844 75.46875 145.34375 74.6875 144.269531 C 73.921875 143.210938 72.835938 142.421875 71.574219 141.84375 C 69.09375 140.703125 65.609375 140.21875 61.324219 140.21875 L 61.324219 144.050781 C 65.4375 144.050781 68.25 144.535156 69.964844 145.324219 C 70.800781 145.707031 71.292969 146.125 71.574219 146.515625 C 71.84375 146.882812 71.996094 147.328125 71.996094 147.921875 Z M 61.324219 140.21875 C 52.175781 140.21875 43.390625 142.644531 34.988281 147.445312 L 36.898438 150.773438 C 44.757812 146.277344 52.890625 144.050781 61.324219 144.050781 Z M 34.988281 147.449219 C 32.917969 148.632812 31.246094 149.765625 30.042969 150.855469 L 32.621094 153.695312 C 33.535156 152.871094 34.9375 151.894531 36.898438 150.773438 Z M 30.042969 150.855469 C 29.476562 151.367188 28.992188 151.859375 28.628906 152.320312 C 28.449219 152.550781 28.265625 152.816406 28.121094 153.105469 C 27.988281 153.382812 27.824219 153.796875 27.824219 154.300781 L 31.667969 154.300781 C 31.667969 154.609375 31.574219 154.792969 31.570312 154.800781 C 31.558594 154.820312 31.574219 154.785156 31.65625 154.679688 C 31.824219 154.464844 32.128906 154.140625 32.621094 153.695312 Z M 27.824219 154.300781 C 27.824219 154.71875 27.90625 155.386719 28.394531 155.972656 C 28.941406 156.628906 29.679688 156.8125 30.242188 156.8125 L 30.242188 152.980469 C 30.472656 152.980469 30.964844 153.066406 31.347656 153.519531 C 31.671875 153.910156 31.667969 154.28125 31.667969 154.300781 Z M 39.164062 176.621094 C 39.640625 176.621094 39.796875 176.886719 39.613281 176.695312 C 39.460938 176.535156 39.210938 176.191406 38.882812 175.570312 L 35.480469 177.347656 C 35.882812 178.113281 36.328125 178.808594 36.832031 179.339844 C 37.3125 179.839844 38.097656 180.453125 39.164062 180.453125 Z M 35.554688 175.445312 C 32.394531 180.484375 29.089844 186.085938 25.640625 192.242188 L 28.992188 194.109375 C 32.417969 188 35.691406 182.457031 38.8125 177.476562 Z M 28.875 194.296875 C 30.019531 192.71875 31.664062 191.878906 34.109375 191.878906 L 34.109375 188.042969 C 30.605469 188.042969 27.722656 189.34375 25.761719 192.050781 Z M 34.109375 191.878906 C 35.0625 191.878906 35.613281 191.941406 35.875 192.003906 C 36.015625 192.039062 35.917969 192.039062 35.746094 191.910156 C 35.644531 191.835938 35.496094 191.699219 35.371094 191.480469 C 35.234375 191.246094 35.164062 190.976562 35.164062 190.703125 L 39.003906 190.703125 C 39.003906 189.828125 38.523438 189.199219 38.050781 188.84375 C 37.628906 188.53125 37.160156 188.375 36.804688 188.289062 C 36.074219 188.105469 35.140625 188.042969 34.109375 188.042969 Z M 35.164062 190.703125 C 35.164062 190.03125 35.546875 189.640625 35.683594 189.523438 C 35.808594 189.417969 35.875 189.410156 35.75 189.457031 L 37.128906 193.035156 C 37.433594 192.917969 37.820312 192.738281 38.164062 192.449219 C 38.515625 192.152344 39.003906 191.570312 39.003906 190.703125 Z M 35.765625 189.453125 C 34.925781 189.765625 34.121094 190.21875 33.515625 190.902344 C 32.875 191.621094 32.535156 192.507812 32.535156 193.472656 L 36.378906 193.472656 C 36.378906 193.441406 36.382812 193.441406 36.375 193.457031 C 36.367188 193.476562 36.367188 193.472656 36.386719 193.445312 C 36.441406 193.386719 36.628906 193.222656 37.113281 193.039062 Z M 32.535156 193.472656 C 32.535156 194.425781 32.796875 195.339844 33.363281 196.136719 C 33.917969 196.917969 34.683594 197.476562 35.535156 197.875 C 37.183594 198.652344 39.421875 198.949219 42.042969 198.949219 L 42.042969 195.117188 C 39.601562 195.117188 38.046875 194.820312 37.171875 194.410156 C 36.757812 194.214844 36.574219 194.03125 36.496094 193.921875 C 36.433594 193.828125 36.378906 193.707031 36.378906 193.472656 Z M 42.042969 198.949219 C 49.375 198.949219 56.007812 196.390625 61.882812 191.367188 L 59.382812 188.457031 C 54.152344 192.929688 48.390625 195.117188 42.042969 195.117188 Z M 61.871094 191.375 C 63.4375 190.058594 64.691406 188.753906 65.570312 187.460938 C 66.441406 186.171875 67.015625 184.78125 67.015625 183.332031 L 63.171875 183.332031 C 63.171875 183.761719 63 184.410156 62.386719 185.3125 C 61.777344 186.214844 60.800781 187.261719 59.390625 188.449219 Z M 67.015625 183.332031 C 67.015625 182.066406 66.355469 181.007812 65.582031 180.199219 C 64.800781 179.375 63.71875 178.601562 62.433594 177.863281 L 60.515625 181.1875 C 61.644531 181.832031 62.371094 182.390625 62.792969 182.835938 C 63.230469 183.292969 63.171875 183.449219 63.171875 183.332031 Z M 62.402344 177.847656 C 59.164062 176.0625 54.488281 175.285156 48.632812 175.285156 L 48.632812 179.117188 C 54.28125 179.117188 58.164062 179.890625 60.546875 181.203125 Z M 48.632812 175.285156 C 46.605469 175.285156 44.902344 175.34375 43.542969 175.464844 C 42.234375 175.582031 41.066406 175.773438 40.21875 176.121094 L 41.683594 179.664062 C 41.957031 179.550781 42.632812 179.394531 43.886719 179.28125 C 45.089844 179.175781 46.664062 179.117188 48.632812 179.117188 Z M 40.265625 176.101562 C 39.707031 176.316406 39.289062 176.472656 39.007812 176.574219 C 38.867188 176.625 38.773438 176.65625 38.71875 176.671875 C 38.691406 176.683594 38.695312 176.683594 38.714844 176.675781 C 38.722656 176.675781 38.753906 176.664062 38.800781 176.65625 C 38.816406 176.652344 38.96875 176.621094 39.164062 176.621094 L 39.164062 180.453125 C 39.371094 180.453125 39.535156 180.417969 39.566406 180.410156 C 39.628906 180.398438 39.683594 180.386719 39.71875 180.375 C 39.785156 180.355469 39.855469 180.335938 39.910156 180.320312 C 40.019531 180.28125 40.160156 180.234375 40.3125 180.179688 C 40.628906 180.066406 41.070312 179.898438 41.636719 179.683594 Z M 99.199219 199.359375 L 99.710938 197.511719 L 98.703125 197.234375 L 97.921875 197.929688 Z M 66.132812 204.304688 L 67.484375 202.9375 L 67.457031 202.914062 Z M 74.808594 189.070312 L 75.171875 190.953125 L 75.175781 190.953125 Z M 95.53125 190.160156 L 95.128906 192.03125 L 96.21875 192.265625 L 96.960938 191.4375 Z M 105.792969 176.0625 L 104.175781 175.03125 Z M 123.144531 151.382812 L 124.617188 152.617188 L 124.621094 152.609375 Z M 132.367188 141.839844 L 133.640625 143.273438 L 133.644531 143.269531 Z M 157.847656 135.3125 L 156.394531 136.5625 L 156.410156 136.578125 Z M 157.003906 147.230469 L 155.429688 146.136719 L 155.417969 146.148438 Z M 150.757812 154.152344 L 149.515625 152.691406 L 149.507812 152.699219 Z M 143.769531 159.296875 L 144.765625 160.933594 L 144.773438 160.929688 Z M 133.902344 154.300781 L 132.324219 153.210938 L 132.304688 153.238281 Z M 135.339844 154.203125 L 133.449219 154.546875 L 133.839844 156.679688 L 135.914062 156.03125 Z M 140.398438 151.136719 L 141.542969 152.675781 L 141.546875 152.671875 Z M 142.480469 144.511719 L 143.621094 146.050781 L 143.640625 146.035156 Z M 137.125 149.257812 L 138.484375 150.613281 L 138.496094 150.601562 Z M 121.660156 168.890625 L 123.238281 169.980469 L 123.253906 169.957031 Z M 116.054688 177.25 L 117.65625 178.308594 L 117.660156 178.304688 Z M 105.496094 192.484375 L 103.976562 191.3125 L 102.207031 193.601562 L 105.007812 194.335938 Z M 148.925781 197.875 L 147.9375 196.230469 L 147.917969 196.242188 L 147.894531 196.253906 Z M 149.71875 199.011719 L 148.042969 198.070312 Z M 147.488281 202.375 L 145.90625 201.285156 L 145.894531 201.304688 Z M 144.910156 205.441406 L 143.933594 203.789062 L 143.929688 203.792969 Z M 125.523438 206.035156 L 125.222656 207.925781 Z M 117.046875 204.402344 L 116.5625 206.257812 L 116.589844 206.261719 Z M 107.480469 201.730469 L 106.941406 203.570312 L 106.945312 203.574219 Z M 75.703125 198.914062 L 74.976562 200.6875 L 75.003906 200.695312 Z M 87.648438 196.835938 L 88.597656 198.503906 L 93.601562 195.675781 L 87.898438 194.933594 Z M 97.921875 197.929688 C 92.140625 203.074219 85.261719 205.652344 77.191406 205.652344 L 77.191406 209.484375 C 86.171875 209.484375 93.96875 206.585938 100.480469 200.789062 Z M 77.191406 205.652344 C 72.222656 205.652344 69.164062 204.589844 67.484375 202.9375 L 64.785156 205.667969 C 67.535156 208.371094 71.84375 209.484375 77.191406 209.484375 Z M 67.457031 202.914062 C 66.785156 202.277344 66.171875 200.859375 66.171875 198.023438 L 62.328125 198.023438 C 62.328125 201.183594 62.972656 203.953125 64.8125 205.695312 Z M 66.171875 198.023438 C 66.171875 196.277344 66.804688 194.910156 68.132812 193.78125 C 69.539062 192.589844 71.816406 191.597656 75.171875 190.953125 L 74.445312 187.1875 C 70.765625 187.894531 67.761719 189.070312 65.648438 190.863281 C 63.457031 192.71875 62.328125 195.152344 62.328125 198.023438 Z M 75.175781 190.953125 C 77.234375 190.554688 79.765625 190.34375 82.792969 190.34375 L 82.792969 186.511719 C 79.605469 186.511719 76.816406 186.730469 74.445312 187.1875 Z M 82.792969 190.34375 C 85.695312 190.34375 89.789062 190.886719 95.128906 192.03125 L 95.9375 188.285156 C 90.5 187.121094 86.097656 186.511719 82.792969 186.511719 Z M 96.960938 191.4375 C 99.9375 188.125 103.425781 183.328125 107.414062 177.09375 L 104.175781 175.03125 C 100.230469 181.195312 96.875 185.792969 94.101562 188.878906 Z M 107.414062 177.097656 C 111.40625 170.871094 114.550781 166.09375 116.847656 162.757812 L 113.679688 160.585938 C 111.347656 163.976562 108.179688 168.792969 104.175781 175.03125 Z M 116.847656 162.757812 C 119.121094 159.449219 121.710938 156.070312 124.617188 152.617188 L 121.675781 150.152344 C 118.699219 153.6875 116.03125 157.167969 113.679688 160.585938 Z M 124.621094 152.609375 C 127.507812 149.152344 130.511719 146.039062 133.640625 143.273438 L 131.09375 140.40625 C 127.808594 143.308594 124.667969 146.5625 121.667969 150.160156 Z M 133.644531 143.269531 C 139.9375 137.664062 145.945312 135.050781 151.699219 135.050781 L 151.699219 131.21875 C 144.699219 131.21875 137.820312 134.410156 131.085938 140.410156 Z M 151.699219 135.050781 C 154.257812 135.050781 155.648438 135.703125 156.394531 136.5625 L 159.300781 134.058594 C 157.535156 132.015625 154.828125 131.21875 151.699219 131.21875 Z M 156.410156 136.578125 C 157.339844 137.628906 157.8125 138.871094 157.8125 140.40625 L 161.652344 140.40625 C 161.652344 137.984375 160.867188 135.828125 159.289062 134.042969 Z M 157.8125 140.40625 C 157.8125 141.78125 157.152344 143.667969 155.429688 146.136719 L 158.582031 148.324219 C 160.496094 145.582031 161.652344 142.917969 161.652344 140.40625 Z M 155.417969 146.148438 C 153.730469 148.613281 151.765625 150.792969 149.515625 152.691406 L 152 155.617188 C 154.511719 153.492188 156.710938 151.054688 158.589844 148.3125 Z M 149.507812 152.699219 C 147.226562 154.65625 144.980469 156.308594 142.761719 157.664062 L 144.773438 160.929688 C 147.183594 159.453125 149.597656 157.675781 152.011719 155.609375 Z M 142.769531 157.660156 C 140.539062 159.015625 139.125 159.457031 138.363281 159.457031 L 138.363281 163.292969 C 140.246094 163.292969 142.4375 162.351562 144.765625 160.933594 Z M 138.363281 159.457031 C 137.675781 159.457031 137.046875 159.199219 136.40625 158.449219 L 133.484375 160.9375 C 134.757812 162.429688 136.410156 163.292969 138.363281 163.292969 Z M 136.40625 158.449219 C 135.617188 157.523438 135.425781 156.878906 135.425781 156.480469 L 131.585938 156.480469 C 131.585938 158.121094 132.355469 159.621094 133.484375 160.9375 Z M 135.425781 156.480469 C 135.425781 156.019531 135.457031 155.699219 135.496094 155.484375 C 135.539062 155.253906 135.574219 155.257812 135.5 155.367188 L 132.304688 153.238281 C 131.96875 153.742188 131.804688 154.308594 131.714844 154.800781 C 131.621094 155.3125 131.585938 155.878906 131.585938 156.480469 Z M 135.484375 155.394531 C 135.554688 155.289062 135.558594 155.3125 135.472656 155.375 C 135.371094 155.445312 135.136719 155.574219 134.796875 155.574219 L 134.796875 151.742188 C 133.511719 151.742188 132.714844 152.648438 132.324219 153.210938 Z M 134.796875 155.574219 C 134.523438 155.574219 134.125 155.476562 133.796875 155.152344 C 133.515625 154.871094 133.457031 154.585938 133.449219 154.546875 L 137.230469 153.859375 C 137.15625 153.457031 136.976562 152.902344 136.511719 152.441406 C 136.003906 151.933594 135.367188 151.742188 134.796875 151.742188 Z M 135.914062 156.03125 C 137.324219 155.59375 139.25 154.375 141.542969 152.675781 L 139.253906 149.597656 C 136.921875 151.328125 135.476562 152.152344 134.769531 152.375 Z M 141.546875 152.671875 C 143.957031 150.878906 146.15625 149.007812 148.140625 147.0625 L 145.445312 144.332031 C 143.597656 146.144531 141.53125 147.902344 139.25 149.601562 Z M 148.140625 147.0625 C 149.117188 146.105469 149.890625 145.289062 150.4375 144.621094 C 150.707031 144.292969 150.957031 143.957031 151.144531 143.632812 C 151.292969 143.382812 151.589844 142.84375 151.589844 142.1875 L 147.746094 142.1875 C 147.746094 141.757812 147.925781 141.535156 147.832031 141.695312 C 147.78125 141.78125 147.671875 141.941406 147.460938 142.199219 C 147.046875 142.703125 146.386719 143.410156 145.445312 144.332031 Z M 151.589844 142.1875 C 151.589844 141.542969 151.378906 140.742188 150.675781 140.15625 C 150.039062 139.628906 149.292969 139.527344 148.777344 139.527344 L 148.777344 143.359375 C 148.855469 143.359375 148.554688 143.382812 148.214844 143.101562 C 147.808594 142.761719 147.746094 142.335938 147.746094 142.1875 Z M 148.777344 139.527344 C 147.839844 139.527344 146.785156 139.839844 145.730469 140.257812 L 147.160156 143.816406 C 148.089844 143.445312 148.589844 143.359375 148.777344 143.359375 Z M 145.730469 140.257812 C 144.492188 140.753906 143.003906 141.707031 141.316406 142.984375 L 143.640625 146.035156 C 145.261719 144.808594 146.414062 144.113281 147.160156 143.816406 Z M 141.335938 142.96875 C 139.582031 144.265625 137.722656 145.917969 135.753906 147.914062 L 138.496094 150.601562 C 140.363281 148.707031 142.070312 147.195312 143.621094 146.050781 Z M 135.769531 147.902344 C 131.015625 152.640625 125.78125 159.300781 120.0625 167.828125 L 123.253906 169.957031 C 128.902344 161.539062 133.980469 155.105469 138.484375 150.613281 Z M 120.078125 167.804688 C 118.742188 169.734375 116.867188 172.535156 114.453125 176.199219 L 117.660156 178.304688 C 120.070312 174.648438 121.929688 171.875 123.238281 169.980469 Z M 114.453125 176.191406 C 109.527344 183.613281 106.042969 188.636719 103.976562 191.3125 L 107.019531 193.652344 C 109.179688 190.855469 112.734375 185.722656 117.65625 178.308594 Z M 105.007812 194.335938 C 121.960938 198.789062 134.289062 201.074219 141.835938 201.074219 L 141.835938 197.242188 C 134.839844 197.242188 122.941406 195.082031 105.984375 190.628906 Z M 141.835938 201.074219 C 145.25 201.074219 148.101562 200.664062 149.953125 199.492188 L 147.894531 196.253906 C 147.039062 196.796875 145.164062 197.242188 141.835938 197.242188 Z M 149.914062 199.515625 C 150.015625 199.453125 150.105469 199.40625 150.179688 199.367188 C 150.25 199.324219 150.300781 199.300781 150.332031 199.289062 C 150.347656 199.28125 150.351562 199.277344 150.351562 199.28125 C 150.351562 199.28125 150.335938 199.285156 150.3125 199.292969 C 150.289062 199.300781 150.246094 199.3125 150.1875 199.320312 C 150.128906 199.332031 150.035156 199.34375 149.917969 199.34375 L 149.917969 195.511719 C 149.390625 195.511719 148.941406 195.707031 148.757812 195.792969 C 148.496094 195.910156 148.214844 196.0625 147.9375 196.230469 Z M 149.917969 199.34375 C 149.699219 199.34375 149.414062 199.300781 149.121094 199.144531 C 148.824219 198.984375 148.609375 198.761719 148.472656 198.542969 C 148.234375 198.160156 148.242188 197.832031 148.242188 197.824219 L 152.085938 197.824219 C 152.085938 197.554688 152.054688 197.027344 151.730469 196.511719 C 151.3125 195.847656 150.613281 195.511719 149.917969 195.511719 Z M 148.242188 197.824219 C 148.242188 197.714844 148.257812 197.644531 148.261719 197.625 C 148.265625 197.605469 148.265625 197.609375 148.253906 197.644531 C 148.226562 197.722656 148.164062 197.859375 148.042969 198.070312 L 151.390625 199.949219 C 151.691406 199.417969 152.085938 198.632812 152.085938 197.824219 Z M 148.042969 198.070312 C 147.800781 198.507812 147.109375 199.550781 145.90625 201.285156 L 149.066406 203.464844 C 150.242188 201.769531 151.042969 200.570312 151.390625 199.949219 Z M 145.894531 201.304688 C 145.335938 202.132812 144.871094 202.757812 144.503906 203.195312 C 144.097656 203.675781 143.917969 203.800781 143.933594 203.789062 L 145.882812 207.09375 C 146.460938 206.753906 146.992188 206.199219 147.445312 205.660156 C 147.9375 205.074219 148.480469 204.332031 149.082031 203.445312 Z M 143.929688 203.792969 C 142.785156 204.46875 140.480469 204.957031 136.628906 204.957031 L 136.628906 208.792969 C 140.578125 208.792969 143.792969 208.328125 145.886719 207.089844 Z M 136.628906 204.957031 C 132.855469 204.957031 129.253906 204.683594 125.828125 204.140625 L 125.222656 207.925781 C 128.867188 208.503906 132.671875 208.792969 136.628906 208.792969 Z M 125.828125 204.140625 C 122.351562 203.585938 119.582031 203.050781 117.507812 202.542969 L 116.589844 206.261719 C 118.808594 206.808594 121.691406 207.363281 125.222656 207.925781 Z M 117.535156 202.546875 C 115.410156 201.992188 112.238281 201.109375 108.011719 199.890625 L 106.945312 203.574219 C 111.179688 204.792969 114.390625 205.6875 116.5625 206.257812 Z M 108.015625 199.890625 C 103.824219 198.671875 101.046875 197.878906 99.710938 197.511719 L 98.691406 201.207031 C 99.996094 201.5625 102.742188 202.351562 106.941406 203.570312 Z M 81.105469 194.425781 C 78.90625 194.425781 77.097656 194.550781 75.792969 194.859375 C 75.152344 195.011719 74.46875 195.242188 73.90625 195.640625 C 73.292969 196.074219 72.691406 196.820312 72.691406 197.875 L 76.53125 197.875 C 76.53125 198.417969 76.199219 198.714844 76.128906 198.765625 C 76.105469 198.78125 76.238281 198.691406 76.679688 198.589844 C 77.535156 198.386719 78.976562 198.257812 81.105469 198.257812 Z M 72.691406 197.875 C 72.691406 198.726562 73.105469 199.382812 73.558594 199.816406 C 73.984375 200.222656 74.5 200.492188 74.976562 200.6875 L 76.429688 197.140625 C 76.316406 197.09375 76.242188 197.054688 76.203125 197.03125 C 76.160156 197.007812 76.171875 197.007812 76.210938 197.042969 C 76.25 197.082031 76.332031 197.171875 76.40625 197.320312 C 76.484375 197.476562 76.53125 197.667969 76.53125 197.875 Z M 75.003906 200.695312 C 76.035156 201.101562 77.175781 201.273438 78.378906 201.273438 L 78.378906 197.441406 C 77.535156 197.441406 76.890625 197.320312 76.402344 197.128906 Z M 78.378906 201.273438 C 81.9375 201.273438 85.355469 200.335938 88.597656 198.503906 L 86.703125 195.167969 C 83.996094 196.699219 81.230469 197.441406 78.378906 197.441406 Z M 87.898438 194.933594 C 85.300781 194.597656 83.03125 194.425781 81.105469 194.425781 L 81.105469 198.257812 C 82.816406 198.257812 84.910156 198.414062 87.402344 198.734375 Z M 223.1875 141.492188 L 221.902344 142.917969 L 221.917969 142.933594 Z M 224.328125 153.3125 L 226.160156 153.886719 L 226.164062 153.882812 Z M 220.558594 162.414062 L 218.84375 161.554688 L 218.839844 161.5625 Z M 214.710938 172.402344 L 213.113281 171.339844 L 213.109375 171.34375 Z M 207.222656 182.445312 L 205.746094 181.222656 L 205.742188 181.222656 Z M 198.351562 191.691406 L 199.640625 193.109375 Z M 188.585938 199.308594 L 187.527344 197.707031 L 187.527344 197.710938 Z M 161.121094 204.550781 L 160.042969 206.136719 Z M 156.808594 200.839844 L 155.332031 202.070312 L 155.335938 202.070312 Z M 158.195312 171.710938 L 156.472656 170.863281 L 156.46875 170.871094 Z M 171.679688 152.769531 L 170.289062 151.445312 Z M 190.863281 138.128906 L 191.773438 139.816406 L 191.78125 139.816406 Z M 215.75 137.042969 L 217.261719 138.226562 L 217.28125 138.199219 L 217.300781 138.175781 Z M 214.710938 138.574219 L 216.339844 139.589844 L 216.351562 139.570312 L 216.367188 139.546875 Z M 213.867188 139.710938 L 212.507812 138.359375 L 207.671875 143.183594 L 214.320312 141.574219 Z M 199.640625 162.167969 L 201.5625 162.167969 L 201.5625 161.949219 L 201.511719 161.734375 Z M 196.070312 160.78125 L 194.640625 162.0625 L 194.65625 162.074219 Z M 198.996094 148.070312 L 197.679688 146.675781 L 197.671875 146.683594 Z M 210.445312 140.703125 L 211.164062 142.480469 L 210.335938 138.789062 Z M 178.273438 159.839844 L 179.707031 161.117188 L 179.710938 161.113281 Z M 167.117188 175.964844 L 165.40625 175.097656 L 165.402344 175.109375 Z M 164.34375 195.152344 L 162.707031 196.160156 L 162.71875 196.175781 Z M 186.996094 188.824219 L 188.234375 190.292969 L 188.238281 190.285156 Z M 211.785156 159.050781 L 213.472656 159.964844 L 213.476562 159.957031 Z M 208.960938 151.335938 L 210.054688 152.910156 L 210.066406 152.898438 Z M 199.492188 161.523438 L 197.570312 161.523438 L 197.570312 161.742188 L 197.621094 161.953125 Z M 218.132812 141.234375 C 219.300781 141.234375 220.546875 141.703125 221.902344 142.917969 L 224.472656 140.066406 C 222.589844 138.378906 220.464844 137.402344 218.132812 137.402344 Z M 221.917969 142.933594 C 223.261719 144.109375 223.746094 145.234375 223.746094 146.339844 L 227.585938 146.339844 C 227.585938 143.882812 226.417969 141.777344 224.457031 140.054688 Z M 223.746094 146.339844 C 223.746094 147.839844 223.363281 149.953125 222.492188 152.746094 L 226.164062 153.882812 C 227.078125 150.9375 227.585938 148.398438 227.585938 146.339844 Z M 222.496094 152.738281 C 221.640625 155.460938 220.425781 158.398438 218.84375 161.554688 L 222.277344 163.269531 C 223.933594 159.964844 225.230469 156.839844 226.160156 153.886719 Z M 218.839844 161.5625 C 217.292969 164.675781 215.386719 167.9375 213.113281 171.339844 L 216.308594 173.464844 C 218.660156 169.949219 220.652344 166.546875 222.28125 163.261719 Z M 213.109375 171.34375 C 210.867188 174.714844 208.414062 178.007812 205.746094 181.222656 L 208.703125 183.664062 C 211.457031 180.351562 213.992188 176.949219 216.3125 173.464844 Z M 205.742188 181.222656 C 203.128906 184.378906 200.234375 187.398438 197.058594 190.273438 L 199.640625 193.109375 C 202.945312 190.117188 205.96875 186.96875 208.707031 183.664062 Z M 197.058594 190.273438 C 193.921875 193.113281 190.742188 195.589844 187.527344 197.707031 L 189.640625 200.90625 C 193.035156 198.671875 196.371094 196.074219 199.640625 193.109375 Z M 187.527344 197.710938 C 180.554688 202.304688 173.878906 204.515625 167.464844 204.515625 L 167.464844 208.347656 C 174.800781 208.347656 182.203125 205.808594 189.644531 200.90625 Z M 167.464844 204.515625 C 165.445312 204.515625 163.710938 203.988281 162.199219 202.964844 L 160.042969 206.136719 C 162.230469 207.617188 164.726562 208.347656 167.464844 208.347656 Z M 162.199219 202.964844 C 160.441406 201.773438 159.152344 200.652344 158.28125 199.609375 L 155.335938 202.070312 C 156.507812 203.46875 158.097656 204.820312 160.042969 206.136719 Z M 158.28125 199.613281 C 156.3125 197.261719 155.207031 193.875 155.207031 189.21875 L 151.367188 189.21875 C 151.367188 194.453125 152.609375 198.816406 155.332031 202.070312 Z M 155.207031 189.21875 C 155.207031 184.640625 156.71875 179.101562 159.921875 172.550781 L 156.46875 170.871094 C 153.125 177.707031 151.367188 183.839844 151.367188 189.21875 Z M 159.917969 172.558594 C 163.128906 166.054688 167.503906 159.902344 173.066406 154.09375 L 170.289062 151.445312 C 164.484375 157.507812 159.871094 163.980469 156.472656 170.863281 Z M 173.066406 154.09375 C 178.648438 148.265625 184.886719 143.511719 191.773438 139.816406 L 189.957031 136.441406 C 182.699219 140.332031 176.144531 145.335938 170.289062 151.445312 Z M 191.78125 139.816406 C 198.644531 136.101562 205.054688 134.308594 211.042969 134.308594 L 211.042969 130.476562 C 204.269531 130.476562 197.230469 132.507812 189.949219 136.445312 Z M 211.042969 134.308594 C 212 134.308594 212.894531 134.519531 213.753906 134.949219 L 215.46875 131.519531 C 214.078125 130.828125 212.597656 130.476562 211.042969 130.476562 Z M 213.753906 134.949219 C 214.179688 135.160156 214.355469 135.324219 214.410156 135.390625 C 214.433594 135.417969 214.421875 135.410156 214.40625 135.367188 C 214.386719 135.320312 214.375 135.265625 214.375 135.210938 L 218.21875 135.210938 C 218.21875 133.332031 216.789062 132.179688 215.46875 131.519531 Z M 214.375 135.210938 C 214.375 135.605469 214.28125 135.800781 214.203125 135.910156 L 217.300781 138.175781 C 217.949219 137.296875 218.21875 136.269531 218.21875 135.210938 Z M 214.242188 135.859375 C 213.820312 136.394531 213.425781 136.976562 213.054688 137.605469 L 216.367188 139.546875 C 216.65625 139.050781 216.957031 138.613281 217.261719 138.226562 Z M 213.082031 137.558594 C 212.773438 138.054688 212.582031 138.285156 212.507812 138.359375 L 215.226562 141.066406 C 215.613281 140.679688 215.988281 140.152344 216.339844 139.589844 Z M 214.320312 141.574219 C 215.203125 141.359375 216.457031 141.234375 218.132812 141.234375 L 218.132812 137.402344 C 216.300781 137.402344 214.710938 137.535156 213.414062 137.851562 Z M 197.71875 162.167969 C 197.71875 162.332031 197.679688 162.113281 197.894531 161.808594 C 198.015625 161.632812 198.195312 161.472656 198.421875 161.363281 C 198.640625 161.257812 198.832031 161.238281 198.945312 161.238281 L 198.945312 165.070312 C 199.699219 165.070312 200.507812 164.765625 201.039062 164.007812 C 201.484375 163.375 201.5625 162.660156 201.5625 162.167969 Z M 198.945312 161.238281 C 199.320312 161.238281 199.519531 161.378906 199.441406 161.332031 C 199.40625 161.3125 199.296875 161.242188 199.105469 161.085938 C 198.722656 160.773438 198.191406 160.253906 197.484375 159.488281 L 194.65625 162.074219 C 195.40625 162.894531 196.078125 163.558594 196.65625 164.039062 C 196.941406 164.277344 197.25 164.503906 197.570312 164.679688 C 197.84375 164.832031 198.339844 165.070312 198.945312 165.070312 Z M 197.5 159.5 C 196.09375 157.9375 195.808594 157.054688 195.808594 156.726562 L 191.96875 156.726562 C 191.96875 158.574219 193.140625 160.394531 194.640625 162.0625 Z M 195.808594 156.726562 C 195.808594 155.011719 197.003906 152.605469 200.320312 149.460938 L 197.671875 146.683594 C 194.179688 149.996094 191.96875 153.363281 191.96875 156.726562 Z M 200.3125 149.464844 C 203.582031 146.390625 207.199219 144.070312 211.164062 142.480469 L 209.730469 138.921875 C 205.300781 140.699219 201.28125 143.289062 197.679688 146.675781 Z M 210.335938 138.789062 C 205.277344 139.078125 199.597656 141.203125 193.347656 144.945312 L 195.324219 148.230469 C 201.300781 144.652344 206.363281 142.855469 210.554688 142.613281 Z M 193.347656 144.945312 C 187.070312 148.703125 181.5625 153.246094 176.835938 158.570312 L 179.710938 161.113281 C 184.171875 156.085938 189.371094 151.792969 195.324219 148.230469 Z M 176.839844 158.566406 C 172.144531 163.824219 168.328125 169.332031 165.40625 175.097656 L 168.832031 176.828125 C 171.59375 171.386719 175.214844 166.148438 179.707031 161.117188 Z M 165.402344 175.109375 C 162.546875 180.800781 160.984375 185.671875 160.984375 189.613281 L 164.824219 189.613281 C 164.824219 186.566406 166.070312 182.339844 168.835938 176.820312 Z M 160.984375 189.613281 C 160.984375 192.050781 161.53125 194.257812 162.707031 196.160156 L 165.976562 194.148438 C 165.238281 192.949219 164.824219 191.464844 164.824219 189.613281 Z M 162.71875 196.175781 C 164.125 198.402344 166.460938 199.34375 169.199219 199.34375 L 169.199219 195.511719 C 167.378906 195.511719 166.476562 194.941406 165.96875 194.132812 Z M 169.199219 199.34375 C 171.925781 199.34375 175.003906 198.421875 178.375 196.777344 L 176.683594 193.335938 C 173.574219 194.851562 171.101562 195.511719 169.199219 195.511719 Z M 178.375 196.777344 C 181.765625 195.117188 185.050781 192.953125 188.234375 190.292969 L 185.765625 187.355469 C 182.796875 189.839844 179.769531 191.828125 176.683594 193.335938 Z M 188.238281 190.285156 C 198.976562 181.214844 207.398438 171.109375 213.472656 159.964844 L 210.097656 158.136719 C 204.273438 168.816406 196.171875 178.5625 185.757812 187.359375 Z M 213.476562 159.957031 C 214.703125 157.679688 215.648438 155.707031 216.289062 154.054688 C 216.914062 152.453125 217.324219 150.976562 217.324219 149.753906 L 213.484375 149.753906 C 213.484375 150.242188 213.292969 151.171875 212.710938 152.667969 C 212.144531 154.117188 211.28125 155.9375 210.09375 158.144531 Z M 217.324219 149.753906 C 217.324219 149.253906 217.253906 148.542969 216.828125 147.910156 C 216.3125 147.140625 215.5 146.796875 214.710938 146.796875 L 214.710938 150.628906 C 214.585938 150.628906 214.382812 150.605469 214.15625 150.492188 C 213.921875 150.375 213.746094 150.207031 213.632812 150.035156 C 213.441406 149.75 213.484375 149.558594 213.484375 149.753906 Z M 214.710938 146.796875 C 213.648438 146.796875 212.542969 147.132812 211.457031 147.625 C 210.355469 148.128906 209.148438 148.855469 207.851562 149.769531 L 210.066406 152.898438 C 211.25 152.066406 212.242188 151.484375 213.054688 151.113281 C 213.886719 150.734375 214.417969 150.628906 214.710938 150.628906 Z M 207.867188 149.761719 C 205.277344 151.550781 202.972656 153.539062 200.953125 155.726562 L 203.78125 158.320312 C 205.59375 156.355469 207.683594 154.550781 210.054688 152.910156 Z M 200.953125 155.726562 C 199.957031 156.804688 199.15625 157.792969 198.589844 158.675781 C 198.066406 159.496094 197.570312 160.492188 197.570312 161.523438 L 201.410156 161.523438 C 201.410156 161.632812 201.394531 161.417969 201.828125 160.734375 C 202.222656 160.117188 202.859375 159.316406 203.78125 158.320312 Z M 197.621094 161.953125 L 197.769531 162.597656 L 201.511719 161.734375 L 201.363281 161.09375 Z M 282.925781 156.921875 L 281.847656 155.335938 L 281.839844 155.34375 Z M 273.554688 162.019531 L 272.835938 160.242188 L 274.164062 163.835938 Z M 280.546875 163.007812 L 279.109375 164.28125 L 279.148438 164.320312 L 279.1875 164.363281 Z M 279.503906 165.628906 L 278.054688 164.371094 L 278.050781 164.375 Z M 253.925781 197.527344 L 252.375 196.394531 L 255.105469 199.039062 Z M 262.351562 190.457031 L 261.066406 189.03125 L 261.050781 189.042969 Z M 269.789062 190.949219 L 268.617188 189.429688 L 268.523438 189.507812 Z M 242.769531 212.019531 L 241.625 210.480469 L 241.46875 210.597656 L 241.335938 210.746094 Z M 226.507812 229.230469 L 227.882812 230.570312 L 227.898438 230.554688 Z M 217.980469 224.285156 L 219.535156 225.414062 L 219.550781 225.386719 L 219.570312 225.363281 Z M 233.003906 210.683594 L 234.167969 212.207031 L 234.3125 212.097656 L 234.433594 211.964844 Z M 242.074219 200.792969 L 243.488281 202.089844 L 243.492188 202.085938 Z M 256.800781 183.777344 L 258.394531 184.847656 L 255.476562 182.386719 Z M 246.585938 192.78125 L 245.425781 191.253906 Z M 240.140625 197.328125 L 239.09375 195.722656 L 239.082031 195.730469 Z M 234.738281 200.445312 L 235.570312 202.171875 Z M 217.636719 200.496094 L 219.066406 199.214844 L 219.054688 199.203125 Z M 218.082031 180.167969 L 216.335938 179.371094 Z M 226.164062 167.210938 L 227.667969 168.398438 L 227.671875 168.394531 Z M 238.160156 154.699219 L 236.890625 153.257812 Z M 268.351562 136.644531 L 268.960938 138.464844 L 268.972656 138.460938 Z M 265.476562 154.402344 L 267.339844 154.867188 L 267.394531 154.636719 L 267.394531 154.402344 Z M 265.226562 155.390625 L 263.363281 154.925781 L 263.304688 155.15625 L 263.304688 155.390625 Z M 274.644531 153.3125 L 273.710938 151.640625 Z M 270.976562 143.175781 L 270.277344 141.390625 L 270.273438 141.390625 Z M 257.691406 150.097656 L 258.746094 151.699219 Z M 244.902344 159.890625 L 246.164062 161.335938 L 246.171875 161.328125 Z M 233.894531 170.921875 L 232.429688 169.679688 Z M 224.328125 193.375 L 222.78125 194.511719 L 222.800781 194.535156 L 222.816406 194.554688 Z M 243.660156 186.546875 L 242.574219 184.96875 L 242.570312 184.972656 Z M 270.285156 164.835938 L 271.582031 166.25 L 271.613281 166.222656 L 271.640625 166.191406 Z M 270.976562 164.09375 L 272.398438 165.382812 L 272.46875 165.304688 Z M 273.207031 162.167969 L 274.097656 163.863281 L 272.492188 160.386719 Z M 262.351562 155.886719 L 260.992188 154.53125 Z M 292.207031 144.066406 C 292.207031 144.996094 291.5625 146.5625 289.480469 148.863281 L 292.332031 151.433594 C 294.546875 148.984375 296.050781 146.496094 296.050781 144.066406 Z M 289.480469 148.863281 C 287.453125 151.105469 284.917969 153.265625 281.847656 155.335938 L 284.003906 158.511719 C 287.28125 156.296875 290.0625 153.941406 292.332031 151.433594 Z M 281.839844 155.34375 C 278.800781 157.417969 275.796875 159.046875 272.835938 160.242188 L 274.277344 163.792969 C 277.527344 162.484375 280.769531 160.714844 284.011719 158.503906 Z M 274.164062 163.835938 C 274.664062 163.667969 275.167969 163.585938 275.6875 163.585938 L 275.6875 159.753906 C 274.753906 159.753906 273.835938 159.902344 272.949219 160.199219 Z M 275.6875 163.585938 C 276.808594 163.585938 277.640625 163.691406 278.226562 163.851562 C 278.816406 164.015625 279.042969 164.203125 279.109375 164.28125 L 281.980469 161.734375 C 281.257812 160.921875 280.273438 160.441406 279.246094 160.15625 C 278.214844 159.875 277.011719 159.753906 275.6875 159.753906 Z M 279.1875 164.363281 C 279.132812 164.308594 279.058594 164.214844 279.003906 164.082031 C 278.945312 163.949219 278.921875 163.8125 278.921875 163.699219 L 282.765625 163.699219 C 282.765625 162.894531 282.4375 162.183594 281.902344 161.652344 Z M 278.921875 163.699219 C 278.921875 163.476562 278.964844 163.316406 278.988281 163.25 C 279.011719 163.171875 279.03125 163.128906 279.035156 163.125 C 279.039062 163.117188 279.011719 163.167969 278.929688 163.289062 C 278.765625 163.523438 278.484375 163.878906 278.054688 164.371094 L 280.953125 166.886719 C 281.417969 166.355469 281.804688 165.875 282.085938 165.46875 C 282.226562 165.269531 282.371094 165.042969 282.484375 164.8125 C 282.570312 164.632812 282.765625 164.21875 282.765625 163.699219 Z M 278.050781 164.375 C 268.734375 175.125 260.175781 185.796875 252.375 196.394531 L 255.472656 198.660156 C 263.207031 188.15625 271.703125 177.5625 280.957031 166.882812 Z M 255.105469 199.039062 C 258.3125 196.539062 261.160156 194.148438 263.652344 191.867188 L 261.050781 189.042969 C 258.652344 191.246094 255.882812 193.570312 252.742188 196.019531 Z M 263.636719 191.878906 C 264.617188 191 265.800781 190.542969 267.308594 190.542969 L 267.308594 186.710938 C 264.917969 186.710938 262.796875 187.472656 261.066406 189.03125 Z M 267.308594 190.542969 C 267.957031 190.542969 268.382812 190.585938 268.640625 190.636719 C 268.765625 190.664062 268.808594 190.683594 268.796875 190.675781 C 268.785156 190.671875 268.660156 190.617188 268.515625 190.457031 L 271.359375 187.878906 C 270.773438 187.238281 269.972656 187 269.421875 186.886719 C 268.804688 186.757812 268.085938 186.710938 267.308594 186.710938 Z M 268.515625 190.457031 C 268.609375 190.5625 268.625 190.597656 268.609375 190.570312 C 268.59375 190.539062 268.511719 190.375 268.511719 190.109375 L 272.351562 190.109375 C 272.351562 189.101562 271.765625 188.328125 271.359375 187.878906 Z M 268.511719 190.109375 C 268.511719 189.867188 268.570312 189.675781 268.621094 189.550781 C 268.671875 189.429688 268.726562 189.355469 268.746094 189.328125 C 268.777344 189.285156 268.761719 189.320312 268.617188 189.429688 L 270.960938 192.46875 C 271.246094 192.25 271.550781 191.980469 271.796875 191.65625 C 272.03125 191.347656 272.351562 190.816406 272.351562 190.109375 Z M 268.523438 189.507812 C 263.066406 194.265625 254.113281 201.25 241.625 210.480469 L 243.914062 213.558594 C 256.414062 204.320312 265.472656 197.261719 271.050781 192.394531 Z M 241.335938 210.746094 C 239.214844 213.121094 233.820312 218.828125 225.121094 227.90625 L 227.898438 230.554688 C 236.582031 221.496094 242.027344 215.730469 244.203125 213.292969 Z M 225.136719 227.890625 C 223.875 229.175781 222.628906 229.6875 221.351562 229.6875 L 221.351562 233.519531 C 223.84375 233.519531 226.035156 232.449219 227.882812 230.570312 Z M 221.351562 229.6875 C 219.636719 229.6875 218.652344 229.4375 218.164062 229.164062 C 217.945312 229.042969 217.871094 228.945312 217.84375 228.898438 C 217.816406 228.851562 217.773438 228.753906 217.773438 228.539062 L 213.929688 228.539062 C 213.929688 229.34375 214.113281 230.140625 214.546875 230.859375 C 214.976562 231.578125 215.589844 232.121094 216.289062 232.511719 C 217.632812 233.257812 219.402344 233.519531 221.351562 233.519531 Z M 217.773438 228.539062 C 217.773438 228.539062 217.789062 228.28125 218.101562 227.664062 C 218.390625 227.085938 218.859375 226.339844 219.535156 225.414062 L 216.429688 223.15625 C 215.683594 224.175781 215.085938 225.109375 214.664062 225.949219 C 214.265625 226.746094 213.929688 227.644531 213.929688 228.539062 Z M 219.570312 225.363281 C 221.417969 222.65625 226.175781 218.292969 234.167969 212.207031 L 231.839844 209.160156 C 223.902344 215.207031 218.644531 219.910156 216.394531 223.203125 Z M 234.433594 211.964844 C 236.175781 210.027344 239.191406 206.738281 243.488281 202.089844 L 240.664062 199.492188 C 236.367188 204.140625 233.335938 207.445312 231.574219 209.402344 Z M 243.492188 202.085938 C 251.585938 193.292969 256.609375 187.5 258.394531 184.847656 L 255.203125 182.710938 C 253.617188 185.070312 248.828125 190.621094 240.660156 199.496094 Z M 255.476562 182.386719 C 250.992188 186.636719 247.652344 189.574219 245.425781 191.253906 L 247.746094 194.308594 C 250.148438 192.492188 253.621094 189.429688 258.121094 185.167969 Z M 245.425781 191.253906 C 243.144531 192.976562 241.03125 194.46875 239.09375 195.722656 L 241.1875 198.9375 C 243.21875 197.621094 245.402344 196.078125 247.746094 194.308594 Z M 239.082031 195.730469 C 237.1875 196.980469 235.464844 197.972656 233.90625 198.71875 L 235.570312 202.171875 C 237.320312 201.335938 239.199219 200.25 241.203125 198.929688 Z M 233.910156 198.71875 C 230.039062 200.570312 226.910156 201.402344 224.457031 201.410156 C 222.085938 201.417969 220.355469 200.65625 219.066406 199.214844 L 216.203125 201.773438 C 218.316406 204.128906 221.144531 205.253906 224.46875 205.242188 C 227.71875 205.234375 231.441406 204.148438 235.570312 202.171875 Z M 219.054688 199.203125 C 217.773438 197.800781 216.976562 195.585938 216.976562 192.234375 L 213.136719 192.234375 C 213.136719 196.136719 214.058594 199.429688 216.214844 201.785156 Z M 216.976562 192.234375 C 216.976562 188.925781 217.890625 185.179688 219.828125 180.96875 L 216.335938 179.371094 C 214.238281 183.929688 213.136719 188.226562 213.136719 192.234375 Z M 219.828125 180.96875 C 221.773438 176.738281 224.382812 172.546875 227.667969 168.398438 L 224.65625 166.023438 C 221.199219 170.382812 218.421875 174.828125 216.335938 179.371094 Z M 227.671875 168.394531 C 230.964844 164.210938 234.878906 160.125 239.425781 156.136719 L 236.890625 153.257812 C 232.1875 157.382812 228.105469 161.636719 224.652344 166.027344 Z M 239.425781 156.136719 C 243.976562 152.148438 248.699219 148.652344 253.59375 145.648438 L 251.578125 142.382812 C 246.492188 145.507812 241.597656 149.136719 236.890625 153.257812 Z M 253.59375 145.648438 C 258.460938 142.65625 263.582031 140.261719 268.960938 138.464844 L 267.738281 134.828125 C 262.082031 136.722656 256.691406 139.242188 251.578125 142.382812 Z M 268.972656 138.460938 C 274.328125 136.636719 279.324219 135.742188 283.964844 135.742188 L 283.964844 131.910156 C 278.828125 131.910156 273.410156 132.898438 267.730469 134.832031 Z M 283.964844 135.742188 C 285.433594 135.742188 286.789062 135.988281 288.046875 136.460938 L 289.402344 132.875 C 287.6875 132.226562 285.871094 131.910156 283.964844 131.910156 Z M 288.046875 136.460938 C 289.449219 136.988281 290.203125 137.464844 290.539062 137.804688 L 293.257812 135.09375 C 292.339844 134.179688 290.976562 133.46875 289.402344 132.875 Z M 290.539062 137.804688 C 291.484375 138.742188 292.207031 140.640625 292.207031 144.066406 L 296.050781 144.066406 C 296.050781 140.300781 295.289062 137.121094 293.257812 135.09375 Z M 263.613281 153.9375 L 263.363281 154.925781 L 267.089844 155.855469 L 267.339844 154.867188 Z M 263.304688 155.390625 C 263.304688 156.148438 263.59375 156.988281 264.371094 157.5625 C 265.039062 158.054688 265.808594 158.148438 266.367188 158.148438 L 266.367188 154.316406 C 266.167969 154.316406 266.367188 154.269531 266.652344 154.480469 C 266.816406 154.601562 266.957031 154.769531 267.050781 154.96875 C 267.136719 155.160156 267.148438 155.316406 267.148438 155.390625 Z M 266.367188 158.148438 C 268.898438 158.148438 272.023438 156.964844 275.582031 154.988281 L 273.710938 151.640625 C 270.265625 153.554688 267.867188 154.316406 266.367188 154.316406 Z M 275.582031 154.988281 C 279.179688 152.988281 282.152344 150.902344 284.449219 148.714844 L 281.796875 145.941406 C 279.800781 147.84375 277.121094 149.746094 273.710938 151.640625 Z M 284.449219 148.714844 C 285.589844 147.632812 286.515625 146.574219 287.164062 145.546875 C 287.808594 144.527344 288.269531 143.410156 288.269531 142.234375 L 284.425781 142.234375 C 284.425781 142.414062 284.347656 142.816406 283.914062 143.5 C 283.492188 144.167969 282.804688 144.984375 281.796875 145.941406 Z M 288.269531 142.234375 C 288.269531 140.953125 287.625 139.890625 286.523438 139.269531 C 285.578125 138.738281 284.414062 138.585938 283.273438 138.585938 L 283.273438 142.421875 C 283.699219 142.421875 284.023438 142.449219 284.261719 142.496094 C 284.503906 142.539062 284.609375 142.59375 284.632812 142.605469 C 284.644531 142.613281 284.570312 142.570312 284.5 142.453125 C 284.46875 142.398438 284.445312 142.34375 284.4375 142.300781 C 284.425781 142.257812 284.425781 142.234375 284.425781 142.234375 Z M 283.273438 138.585938 C 279.332031 138.585938 274.988281 139.550781 270.277344 141.390625 L 271.679688 144.960938 C 276.089844 143.238281 279.945312 142.421875 283.273438 142.421875 Z M 270.273438 141.390625 C 265.617188 143.222656 261.070312 145.59375 256.636719 148.496094 L 258.746094 151.699219 C 262.972656 148.933594 267.285156 146.6875 271.683594 144.957031 Z M 256.636719 148.496094 C 252.226562 151.386719 247.890625 154.707031 243.632812 158.453125 L 246.171875 161.328125 C 250.308594 157.691406 254.5 154.484375 258.746094 151.699219 Z M 243.636719 158.449219 C 239.378906 162.160156 235.640625 165.90625 232.429688 169.679688 L 235.359375 172.160156 C 238.429688 168.550781 242.03125 164.941406 246.164062 161.335938 Z M 232.429688 169.679688 C 229.253906 173.421875 226.664062 177.125 224.671875 180.789062 L 228.050781 182.613281 C 229.890625 179.222656 232.324219 175.738281 235.363281 172.160156 Z M 224.671875 180.789062 C 222.683594 184.445312 221.5625 187.789062 221.5625 190.753906 L 225.40625 190.753906 C 225.40625 188.703125 226.203125 186.015625 228.050781 182.613281 Z M 221.5625 190.753906 C 221.5625 192.128906 221.964844 193.40625 222.78125 194.511719 L 225.871094 192.234375 C 225.566406 191.824219 225.40625 191.351562 225.40625 190.753906 Z M 222.816406 194.554688 C 223.835938 195.855469 225.300781 196.425781 226.90625 196.425781 L 226.90625 192.59375 C 226.265625 192.59375 226.007812 192.40625 225.839844 192.191406 Z M 226.90625 196.425781 C 229.070312 196.425781 231.644531 195.617188 234.523438 194.25 C 237.441406 192.863281 240.859375 190.8125 244.753906 188.125 L 242.570312 184.972656 C 238.765625 187.59375 235.539062 189.523438 232.871094 190.789062 C 230.164062 192.074219 228.210938 192.59375 226.90625 192.59375 Z M 244.75 188.128906 C 252.582031 182.75 261.527344 175.449219 271.582031 166.25 L 268.984375 163.425781 C 259.011719 172.554688 250.207031 179.730469 242.574219 184.96875 Z M 271.640625 166.191406 C 271.8125 166.023438 272.070312 165.746094 272.398438 165.382812 L 269.558594 162.804688 C 269.222656 163.171875 269.019531 163.386719 268.925781 163.480469 Z M 272.46875 165.304688 C 273.082031 164.550781 273.632812 164.105469 274.097656 163.863281 L 272.320312 160.46875 C 271.265625 161.015625 270.328125 161.859375 269.488281 162.882812 Z M 272.492188 160.386719 C 269.871094 161.441406 267.925781 161.882812 266.566406 161.882812 L 266.566406 165.714844 C 268.644531 165.714844 271.125 165.066406 273.925781 163.945312 Z M 266.566406 161.882812 C 265.128906 161.882812 264.109375 161.566406 263.378906 161.074219 L 261.226562 164.246094 C 262.742188 165.269531 264.566406 165.714844 266.566406 165.714844 Z M 263.378906 161.074219 C 262.75 160.648438 262.539062 160.207031 262.539062 159.59375 L 258.695312 159.59375 C 258.695312 161.554688 259.605469 163.15625 261.226562 164.246094 Z M 262.539062 159.59375 C 262.539062 158.898438 262.824219 158.125 263.710938 157.238281 L 260.992188 154.53125 C 259.566406 155.953125 258.695312 157.652344 258.695312 159.59375 Z M 263.710938 157.238281 C 264.253906 156.695312 264.660156 156.347656 264.941406 156.144531 C 265.011719 156.097656 265.0625 156.0625 265.101562 156.039062 C 265.121094 156.027344 265.136719 156.019531 265.148438 156.015625 C 265.152344 156.011719 265.15625 156.011719 265.160156 156.007812 C 265.164062 156.007812 265.164062 156.007812 265.164062 156.007812 C 265.164062 156.007812 265.160156 156.007812 265.160156 156.007812 C 265.15625 156.011719 265.152344 156.011719 265.144531 156.015625 C 265.132812 156.019531 265.109375 156.027344 265.078125 156.035156 C 265.023438 156.050781 264.921875 156.070312 264.78125 156.070312 L 264.78125 152.238281 C 263.894531 152.238281 263.140625 152.722656 262.710938 153.027344 C 262.183594 153.402344 261.605469 153.917969 260.992188 154.53125 Z M 264.78125 156.070312 C 264.949219 156.070312 264.855469 156.09375 264.65625 156.019531 C 264.546875 155.980469 264.28125 155.871094 264.027344 155.601562 C 263.734375 155.285156 263.554688 154.859375 263.554688 154.402344 L 267.394531 154.402344 C 267.394531 153.859375 267.1875 153.359375 266.835938 152.984375 C 266.523438 152.652344 266.171875 152.492188 265.949219 152.410156 C 265.515625 152.257812 265.074219 152.238281 264.78125 152.238281 Z M 357.289062 136.84375 L 357.253906 138.761719 L 357.320312 138.761719 L 357.386719 138.757812 Z M 359.171875 136.746094 L 359.171875 134.828125 L 359.121094 134.828125 L 359.070312 134.832031 Z M 361.054688 137.488281 L 359.941406 139.046875 L 359.972656 139.070312 Z M 362.144531 138.773438 L 364.019531 139.199219 L 364.066406 138.988281 L 364.066406 138.773438 Z M 350.445312 158.65625 L 352.085938 159.652344 L 352.089844 159.648438 Z M 311.085938 224.777344 L 309.351562 223.949219 L 312.476562 226.097656 Z M 315.097656 220.96875 L 313.878906 219.488281 L 313.863281 219.503906 L 313.84375 219.519531 Z M 318.171875 219.4375 L 319.632812 218.191406 L 319.582031 218.132812 L 319.53125 218.082031 Z M 314.902344 224.828125 L 313.386719 223.648438 L 313.371094 223.671875 Z M 310.984375 229.722656 L 309.554688 228.445312 L 309.535156 228.46875 Z M 308.652344 232.839844 L 307.035156 231.8125 L 307.015625 231.839844 L 307 231.867188 Z M 306.917969 235.214844 L 305.609375 233.8125 L 305.5625 233.859375 Z M 300.078125 233.285156 L 298.570312 234.472656 L 298.570312 234.476562 Z M 312.769531 201.929688 L 311.140625 200.914062 Z M 338.796875 162.414062 L 340.367188 163.515625 L 337.332031 161.175781 Z M 297.351562 202.671875 L 296.335938 201.046875 L 296.328125 201.050781 Z M 285.355469 205.09375 L 284.375 206.742188 L 284.394531 206.753906 Z M 283.023438 202.71875 L 281.292969 203.554688 L 281.304688 203.578125 L 281.320312 203.601562 Z M 285.503906 187.042969 L 287.246094 187.84375 L 287.25 187.839844 Z M 293.683594 172.253906 L 295.304688 173.28125 L 295.308594 173.277344 Z M 310.042969 148.21875 L 311.582031 149.367188 L 308.753906 146.796875 Z M 296.605469 153.660156 L 295.25 155.015625 L 295.308594 155.070312 L 295.367188 155.121094 Z M 294.921875 151.878906 L 293.453125 153.113281 L 293.507812 153.175781 Z M 294.375 146.882812 L 292.765625 145.84375 L 292.742188 145.878906 L 292.722656 145.914062 Z M 295.371094 145.597656 L 296.726562 146.953125 Z M 298.9375 144.214844 L 297.722656 142.730469 L 297.6875 142.757812 L 297.652344 142.789062 Z M 300.375 144.90625 L 300.917969 146.742188 L 300.96875 146.730469 L 301.015625 146.710938 Z M 302.554688 143.917969 L 303.441406 145.617188 L 303.464844 145.605469 Z M 305.035156 142.582031 L 305.957031 144.265625 L 305.980469 144.25 Z M 308.40625 140.652344 L 309.367188 142.3125 L 309.394531 142.296875 Z M 311.777344 138.675781 L 310.863281 136.988281 L 310.832031 137.007812 Z M 315.199219 136.398438 L 316.335938 137.945312 L 316.339844 137.941406 Z M 318.570312 134.125 L 319.488281 135.804688 L 319.519531 135.789062 L 319.550781 135.769531 Z M 321.546875 133.480469 L 320.84375 135.265625 L 320.871094 135.277344 Z M 323.378906 134.074219 L 322.949219 135.941406 L 322.976562 135.949219 Z M 324.570312 134.519531 L 323.582031 136.164062 L 323.675781 136.21875 L 323.773438 136.265625 Z M 325.558594 135.113281 L 324.378906 136.625 L 324.414062 136.652344 L 324.449219 136.675781 Z M 325.660156 141.046875 L 324.117188 139.90625 L 324.101562 139.929688 Z M 319.363281 150.199219 L 320.949219 151.277344 L 320.953125 151.273438 Z M 308.257812 166.714844 L 306.65625 165.660156 Z M 297.402344 184.175781 L 295.738281 183.21875 L 295.730469 183.226562 Z M 296.0625 193.273438 L 297.230469 194.796875 L 297.234375 194.789062 Z M 329.921875 161.175781 L 328.523438 159.863281 L 328.523438 159.867188 Z M 349.851562 138.972656 L 348.300781 137.839844 L 348.285156 137.863281 Z M 351.6875 137.238281 L 350.863281 135.507812 L 350.847656 135.515625 L 350.828125 135.527344 Z M 354.511719 136.792969 L 354.546875 134.878906 L 354.511719 134.878906 Z M 357.386719 138.757812 L 359.273438 138.660156 L 359.070312 134.832031 L 357.1875 134.929688 Z M 359.171875 138.660156 C 359.167969 138.660156 359.226562 138.660156 359.359375 138.714844 C 359.496094 138.765625 359.6875 138.867188 359.941406 139.046875 L 362.171875 135.929688 C 361.3125 135.3125 360.292969 134.828125 359.171875 134.828125 Z M 359.972656 139.070312 C 360.113281 139.164062 360.214844 139.242188 360.289062 139.308594 C 360.363281 139.371094 360.402344 139.410156 360.40625 139.417969 C 360.417969 139.429688 360.375 139.386719 360.332031 139.285156 C 360.285156 139.183594 360.226562 139.007812 360.226562 138.773438 L 364.066406 138.773438 C 364.066406 137.949219 363.660156 137.320312 363.339844 136.941406 C 363.003906 136.542969 362.574219 136.199219 362.136719 135.902344 Z M 360.273438 138.347656 C 360.3125 138.171875 360.351562 138.140625 360.1875 138.46875 C 360.070312 138.707031 359.886719 139.046875 359.640625 139.5 C 359.144531 140.394531 358.414062 141.664062 357.441406 143.316406 C 355.496094 146.617188 352.621094 151.398438 348.804688 157.660156 L 352.089844 159.648438 C 355.90625 153.382812 358.796875 148.585938 360.753906 145.257812 C 361.730469 143.597656 362.484375 142.289062 363.003906 141.347656 C 363.261719 140.878906 363.472656 140.484375 363.628906 140.175781 C 363.738281 139.953125 363.9375 139.554688 364.019531 139.199219 Z M 348.804688 157.660156 C 325.015625 196.664062 311.816406 218.824219 309.351562 223.949219 L 312.816406 225.609375 C 315.171875 220.707031 328.21875 198.785156 352.085938 159.652344 Z M 312.476562 226.097656 C 313.652344 224.859375 314.945312 223.636719 316.355469 222.421875 L 313.84375 219.519531 C 312.34375 220.8125 310.960938 222.125 309.691406 223.460938 Z M 316.320312 222.449219 C 317.054688 221.847656 317.605469 221.414062 317.976562 221.136719 C 318.167969 220.996094 318.28125 220.921875 318.335938 220.886719 C 318.371094 220.867188 318.347656 220.882812 318.289062 220.90625 C 318.261719 220.921875 318.199219 220.949219 318.105469 220.980469 C 318.03125 221 317.839844 221.058594 317.578125 221.058594 L 317.578125 217.222656 C 317.101562 217.222656 316.742188 217.402344 316.679688 217.429688 C 316.539062 217.492188 316.417969 217.566406 316.324219 217.625 C 316.132812 217.742188 315.914062 217.894531 315.691406 218.058594 C 315.238281 218.390625 314.628906 218.875 313.878906 219.488281 Z M 317.578125 221.058594 C 317.085938 221.058594 316.824219 220.804688 316.8125 220.792969 L 319.53125 218.082031 C 319.125 217.675781 318.464844 217.222656 317.578125 217.222656 Z M 316.714844 220.683594 C 316.730469 220.703125 316.695312 220.664062 316.652344 220.574219 C 316.609375 220.476562 316.550781 220.304688 316.550781 220.078125 L 320.394531 220.078125 C 320.394531 219.234375 319.976562 218.589844 319.632812 218.191406 Z M 316.550781 220.078125 C 316.550781 219.789062 316.640625 219.605469 316.660156 219.566406 C 316.683594 219.523438 316.675781 219.546875 316.597656 219.640625 L 319.453125 222.203125 C 319.8125 221.804688 320.394531 221.0625 320.394531 220.078125 Z M 316.597656 219.640625 C 316.242188 220.03125 315.144531 221.40625 313.390625 223.648438 L 316.414062 226.007812 C 318.226562 223.699219 319.210938 222.46875 319.453125 222.203125 Z M 313.371094 223.671875 C 311.621094 225.976562 310.359375 227.554688 309.554688 228.445312 L 312.414062 231.003906 C 313.332031 229.984375 314.679688 228.296875 316.433594 225.984375 Z M 309.535156 228.46875 C 308.613281 229.527344 307.777344 230.640625 307.035156 231.8125 L 310.277344 233.867188 C 310.917969 232.859375 311.640625 231.898438 312.433594 230.980469 Z M 307 231.867188 C 306.363281 232.949219 305.894531 233.542969 305.609375 233.8125 L 308.230469 236.613281 C 308.933594 235.960938 309.625 234.972656 310.3125 233.8125 Z M 305.5625 233.859375 C 305.480469 233.9375 305.40625 233.988281 305.183594 233.988281 L 305.183594 237.824219 C 306.355469 237.824219 307.433594 237.414062 308.277344 236.570312 Z M 305.183594 233.988281 C 303.824219 233.988281 302.652344 233.441406 301.585938 232.09375 L 298.570312 234.476562 C 300.277344 236.625 302.511719 237.824219 305.183594 237.824219 Z M 301.585938 232.097656 C 300.304688 230.472656 299.964844 229.453125 299.964844 228.933594 L 296.125 228.933594 C 296.125 230.785156 297.144531 232.667969 298.570312 234.472656 Z M 299.964844 228.933594 C 299.964844 228.949219 299.964844 228.90625 299.988281 228.789062 C 300.011719 228.671875 300.046875 228.519531 300.113281 228.316406 C 300.238281 227.910156 300.4375 227.378906 300.730469 226.707031 C 301.3125 225.371094 302.199219 223.59375 303.414062 221.367188 C 305.839844 216.914062 309.5 210.78125 314.398438 202.945312 L 311.140625 200.914062 C 306.226562 208.773438 302.519531 214.984375 300.039062 219.535156 C 298.800781 221.808594 297.851562 223.695312 297.203125 225.183594 C 296.878906 225.929688 296.621094 226.601562 296.441406 227.191406 C 296.265625 227.75 296.125 228.359375 296.125 228.933594 Z M 314.398438 202.945312 C 324.234375 187.269531 332.890625 174.128906 340.367188 163.515625 L 337.222656 161.3125 C 329.699219 171.996094 321 185.199219 311.140625 200.914062 Z M 337.332031 161.175781 C 319.988281 181.605469 306.339844 194.820312 296.335938 201.046875 L 298.367188 204.296875 C 308.917969 197.730469 322.902344 184.105469 340.261719 163.652344 Z M 296.328125 201.050781 C 292.835938 203.242188 290.3125 204.117188 288.628906 204.117188 L 288.628906 207.949219 C 291.433594 207.949219 294.726562 206.585938 298.375 204.292969 Z M 288.628906 204.117188 C 287.917969 204.117188 287.15625 203.917969 286.3125 203.433594 L 284.394531 206.753906 C 285.734375 207.523438 287.152344 207.949219 288.628906 207.949219 Z M 286.335938 203.445312 C 285.542969 202.976562 285.039062 202.433594 284.730469 201.839844 L 281.320312 203.601562 C 282 204.917969 283.050781 205.960938 284.375 206.742188 Z M 284.753906 201.886719 C 284.5 201.359375 284.25 200.058594 284.25 197.625 L 280.410156 197.625 C 280.410156 200.074219 280.625 202.167969 281.292969 203.554688 Z M 284.25 197.625 C 284.25 195.59375 285.152344 192.382812 287.246094 187.84375 L 283.757812 186.242188 C 281.625 190.867188 280.410156 194.714844 280.410156 197.625 Z M 287.25 187.839844 C 289.320312 183.320312 292.003906 178.46875 295.304688 173.28125 L 292.058594 171.226562 C 288.683594 176.527344 285.914062 181.535156 283.757812 186.246094 Z M 295.308594 173.277344 C 301.207031 163.941406 306.628906 155.976562 311.582031 149.367188 L 308.503906 147.070312 C 303.476562 153.785156 297.992188 161.839844 292.058594 171.234375 Z M 308.753906 146.796875 C 306.605469 148.734375 304.714844 150.128906 303.078125 151.03125 C 301.429688 151.941406 300.148438 152.289062 299.1875 152.289062 L 299.1875 156.121094 C 301.035156 156.121094 302.96875 155.46875 304.933594 154.386719 C 306.917969 153.292969 309.050781 151.695312 311.328125 149.640625 Z M 299.1875 152.289062 C 298.617188 152.289062 298.226562 152.246094 297.972656 152.191406 C 297.695312 152.132812 297.722656 152.089844 297.847656 152.195312 L 295.367188 155.121094 C 295.925781 155.59375 296.59375 155.820312 297.179688 155.941406 C 297.78125 156.070312 298.464844 156.121094 299.1875 156.121094 Z M 297.964844 152.304688 C 297.601562 151.9375 297.058594 151.371094 296.339844 150.585938 L 293.507812 153.175781 C 294.238281 153.972656 294.824219 154.589844 295.25 155.015625 Z M 296.394531 150.648438 C 295.953125 150.121094 295.804688 149.65625 295.804688 149.207031 L 291.960938 149.207031 C 291.960938 150.671875 292.503906 151.988281 293.453125 153.113281 Z M 295.804688 149.207031 C 295.804688 148.398438 295.941406 148.007812 296.035156 147.855469 L 292.722656 145.914062 C 292.148438 146.882812 291.960938 148.042969 291.960938 149.207031 Z M 295.988281 147.925781 C 296.316406 147.417969 296.5625 147.117188 296.726562 146.953125 L 294.011719 144.242188 C 293.578125 144.675781 293.164062 145.226562 292.765625 145.84375 Z M 296.726562 146.953125 C 297.28125 146.402344 297.714844 145.980469 298.046875 145.679688 C 298.417969 145.34375 298.554688 145.253906 298.539062 145.261719 L 296.5625 141.976562 C 296.210938 142.183594 295.824219 142.519531 295.464844 142.84375 C 295.066406 143.203125 294.582031 143.671875 294.011719 144.242188 Z M 298.539062 145.261719 C 298.53125 145.265625 298.535156 145.261719 298.5625 145.257812 C 298.589844 145.25 298.644531 145.238281 298.738281 145.238281 L 298.738281 141.40625 C 298 141.40625 297.246094 141.566406 296.5625 141.976562 Z M 298.738281 145.238281 C 298.929688 145.238281 298.867188 145.261719 298.691406 145.203125 C 298.597656 145.171875 298.335938 145.074219 298.078125 144.816406 C 297.773438 144.511719 297.5625 144.070312 297.5625 143.570312 L 301.402344 143.570312 C 301.402344 142.214844 300.277344 141.691406 299.90625 141.566406 C 299.480469 141.425781 299.042969 141.40625 298.738281 141.40625 Z M 297.5625 143.570312 C 297.5625 143.179688 297.691406 142.90625 297.75 142.796875 C 297.8125 142.671875 297.871094 142.605469 297.878906 142.59375 C 297.898438 142.570312 297.863281 142.613281 297.722656 142.730469 L 300.15625 145.695312 C 300.375 145.515625 300.613281 145.304688 300.8125 145.066406 C 300.914062 144.949219 301.042969 144.78125 301.152344 144.574219 C 301.253906 144.378906 301.402344 144.027344 301.402344 143.570312 Z M 297.652344 142.789062 C 297.4375 142.984375 297.199219 143.222656 297.003906 143.496094 C 296.835938 143.726562 296.523438 144.226562 296.523438 144.90625 L 300.363281 144.90625 C 300.363281 145.179688 300.296875 145.390625 300.246094 145.507812 C 300.195312 145.625 300.148438 145.699219 300.128906 145.722656 C 300.097656 145.765625 300.113281 145.738281 300.222656 145.636719 Z M 296.523438 144.90625 C 296.523438 145.320312 296.644531 145.761719 296.929688 146.148438 C 297.195312 146.511719 297.527344 146.71875 297.785156 146.835938 C 298.253906 147.046875 298.71875 147.070312 298.988281 147.070312 L 298.988281 143.238281 C 298.890625 143.238281 299.085938 143.214844 299.375 143.347656 C 299.539062 143.421875 299.804688 143.578125 300.027344 143.878906 C 300.261719 144.203125 300.363281 144.570312 300.363281 144.90625 Z M 298.988281 147.070312 C 299.613281 147.070312 300.273438 146.933594 300.917969 146.742188 L 299.835938 143.066406 C 299.355469 143.207031 299.089844 143.238281 298.988281 143.238281 Z M 301.015625 146.710938 C 301.699219 146.472656 302.515625 146.097656 303.441406 145.617188 L 301.671875 142.214844 C 300.8125 142.660156 300.175781 142.945312 299.734375 143.097656 Z M 303.464844 145.605469 C 304.390625 145.109375 305.222656 144.660156 305.957031 144.261719 L 304.113281 140.898438 C 303.394531 141.292969 302.574219 141.734375 301.652344 142.226562 Z M 305.980469 144.25 C 306.75 143.816406 307.878906 143.167969 309.367188 142.3125 L 307.445312 138.992188 C 305.960938 139.851562 304.84375 140.488281 304.089844 140.914062 Z M 309.394531 142.296875 C 310.878906 141.40625 311.984375 140.757812 312.722656 140.34375 L 310.832031 137.007812 C 310.050781 137.445312 308.910156 138.117188 307.417969 139.007812 Z M 312.691406 140.359375 C 313.605469 139.867188 314.832031 139.042969 316.335938 137.945312 L 314.0625 134.855469 C 312.589844 135.933594 311.535156 136.625 310.863281 136.988281 Z M 316.339844 137.941406 C 317.855469 136.824219 318.890625 136.132812 319.488281 135.804688 L 317.648438 132.441406 C 316.796875 132.90625 315.582031 133.734375 314.058594 134.859375 Z M 319.550781 135.769531 C 320.050781 135.476562 320.40625 135.34375 320.636719 135.292969 C 320.855469 135.246094 320.890625 135.285156 320.84375 135.265625 L 322.246094 131.695312 C 320.632812 131.066406 318.953125 131.667969 317.589844 132.476562 Z M 320.871094 135.277344 C 321.683594 135.582031 322.390625 135.8125 322.949219 135.941406 L 323.8125 132.207031 C 323.507812 132.136719 322.992188 131.976562 322.21875 131.6875 Z M 322.976562 135.949219 C 323.277344 136.011719 323.464844 136.09375 323.582031 136.164062 L 325.558594 132.875 C 325.007812 132.546875 324.40625 132.335938 323.78125 132.199219 Z M 323.773438 136.265625 C 324.007812 136.371094 324.210938 136.492188 324.378906 136.625 L 326.738281 133.601562 C 326.316406 133.273438 325.855469 133 325.363281 132.773438 Z M 324.449219 136.675781 C 325.113281 137.148438 325.175781 137.480469 325.175781 137.683594 L 329.015625 137.683594 C 329.015625 135.910156 328.050781 134.527344 326.671875 133.550781 Z M 325.175781 137.683594 C 325.175781 138.035156 324.980469 138.746094 324.117188 139.90625 L 327.199219 142.191406 C 328.253906 140.777344 329.015625 139.25 329.015625 137.683594 Z M 324.101562 139.929688 C 323.15625 141.242188 321.039062 144.316406 317.773438 149.121094 L 320.953125 151.273438 C 324.230469 146.453125 326.3125 143.425781 327.21875 142.164062 Z M 317.777344 149.117188 C 314.5 153.90625 310.792969 159.421875 306.65625 165.660156 L 309.859375 167.773438 C 313.988281 161.546875 317.683594 156.050781 320.949219 151.277344 Z M 306.65625 165.660156 C 302.539062 171.886719 298.898438 177.738281 295.738281 183.21875 L 299.066406 185.128906 C 302.183594 179.730469 305.78125 173.941406 309.859375 167.769531 Z M 295.730469 183.226562 C 294.164062 185.96875 292.96875 188.246094 292.15625 190.039062 C 291.75 190.933594 291.425781 191.738281 291.203125 192.4375 C 290.988281 193.105469 290.820312 193.8125 290.820312 194.460938 L 294.660156 194.460938 C 294.660156 194.402344 294.6875 194.144531 294.863281 193.605469 C 295.027344 193.09375 295.285156 192.433594 295.65625 191.617188 C 296.398438 189.980469 297.53125 187.820312 299.070312 185.121094 Z M 290.820312 194.460938 C 290.820312 194.816406 290.855469 195.378906 291.148438 195.917969 C 291.304688 196.21875 291.558594 196.539062 291.945312 196.78125 C 292.339844 197.027344 292.761719 197.121094 293.140625 197.121094 L 293.140625 193.285156 C 293.382812 193.285156 293.6875 193.347656 293.980469 193.53125 C 294.269531 193.710938 294.441406 193.941406 294.535156 194.117188 C 294.691406 194.40625 294.660156 194.601562 294.660156 194.460938 Z M 293.140625 197.121094 C 293.507812 197.121094 293.800781 197.019531 293.929688 196.972656 C 294.089844 196.914062 294.238281 196.84375 294.355469 196.78125 C 294.597656 196.65625 294.859375 196.496094 295.125 196.320312 C 295.667969 195.960938 296.375 195.449219 297.230469 194.796875 L 294.894531 191.753906 C 294.0625 192.386719 293.441406 192.835938 293.007812 193.121094 C 292.789062 193.265625 292.652344 193.347656 292.582031 193.382812 C 292.550781 193.402344 292.5625 193.390625 292.613281 193.371094 C 292.632812 193.367188 292.835938 193.285156 293.140625 193.285156 Z M 297.234375 194.789062 C 306.214844 187.875 317.582031 177.085938 331.320312 162.488281 L 328.523438 159.867188 C 314.832031 174.414062 303.625 185.027344 294.890625 191.757812 Z M 331.320312 162.488281 C 342.546875 150.566406 349.304688 143.050781 351.417969 140.078125 L 348.285156 137.863281 C 346.363281 140.5625 339.835938 147.851562 328.523438 159.863281 Z M 351.402344 140.101562 C 351.945312 139.359375 352.339844 139.054688 352.542969 138.953125 L 350.828125 135.527344 C 349.839844 136.015625 349.011719 136.867188 348.300781 137.839844 Z M 352.507812 138.972656 C 352.746094 138.859375 353.347656 138.710938 354.511719 138.710938 L 354.511719 134.878906 C 353.164062 134.878906 351.878906 135.027344 350.863281 135.507812 Z M 354.476562 138.710938 L 357.253906 138.761719 L 357.320312 134.929688 L 354.546875 134.878906 Z M 354.476562 138.710938 " fill-opacity="1" fill-rule="nonzero"/></g></svg>